<?xml version="1.0" encoding="utf-8"?>
<!-- Generator: Adobe Illustrator 15.0.2, SVG Export Plug-In . SVG Version: 6.00 Build 0)  -->
<!DOCTYPE svg PUBLIC "-//W3C//DTD SVG 1.1//EN" "http://www.w3.org/Graphics/SVG/1.1/DTD/svg11.dtd">
<svg version="1.1" id="Layer_1" xmlns="http://www.w3.org/2000/svg" xmlns:xlink="http://www.w3.org/1999/xlink" x="0px" y="0px"
	 width="244px" height="213.333px" viewBox="0 0 244 213.333" enable-background="new 0 0 244 213.333" xml:space="preserve">
<g>
	<g>
		<g>
			<path fill="#FFFFFF" stroke="#FFFFFF" stroke-width="0.3519" stroke-miterlimit="10" d="M84.415,109.523
				c0,0-5.684,18.794-1.034,30.371h15.838C88.226,126.287,84.415,109.523,84.415,109.523z"/>
			<polygon fill="#FFFFFF" stroke="#FFFFFF" stroke-width="0.3519" stroke-miterlimit="10" points="58.739,139.895 57.205,138.601 
				57.063,139.895 			"/>
			<path fill="#FFFFFF" stroke="#FFFFFF" stroke-width="0.3519" stroke-miterlimit="10" d="M91.157,59.346
				c0,0-27.453,37.21-17.182,68.268c0,0,1.623-37.84,19.167-49.01c-12.102,32.391,8.289,57.371,11.753,61.291h83.156l-2.442-8.754
				c-6.96-11.655-16.452-31.988-10.131-48.29c-5.274,8.542-7.187,25.104-2.571,37.787c-13.793-28.261,0.401-46.53,0.401-46.53
				s-7.891,0.701-15.76,14.345c0,0,1.888-10.072,6.037-14.424h0c-0.023,0.007-5.881,1.767-16.711,20.698
				c0,0,2.285-12.187,7.264-19.158c-7.807,2.017-13.601,5.047-28.527,4.287c9.743-5.717,10.591-8.504,10.591-8.504
				c-10.101,0.199-22.685,2.07-29.693,10.133c6.403-27.458,19.052-26.629,36.717-36.95c-20.61,3.518-27.741-11.764-44.485-11.339
				c11.236-11.562,27.176-12.176,47.422-6.979c7.941,2.04,14.588,2.944,17.103,2.58c4.728-0.684,5.823-2.087,7.488-3.636
				c-20.489-27.083-65.141-9.229-65.141-9.229C76.867,29.258,66.587,55.344,65.673,63.706
				c10.489-17.285,25.414-25.462,25.414-25.462s-24.31,26.96-26.244,57.739C76.856,66.829,91.157,59.346,91.157,59.346z"/>
		</g>
		<g>
			<path fill="#FFFFFF" d="M168.426,30.741c-7.182,0.034-17.613,22.472-42.594,30.114c32.997,7.908,61.585,4.898,75.315,0.138
				c-11.455-8.423-40.014,0.97-62.033-1.193c22.687-2.06,64.416-15.334,70.941,7.36C214.198,36.418,190.538,30.634,168.426,30.741z"
				/>
			<path fill="#FFFFFF" d="M205.042,64.452l4.799,7.489l0.048-0.076C208.806,69.646,207.076,66.613,205.042,64.452z"/>
		</g>
		
			<path fill="#B3B3B4" stroke="#B3B3B4" stroke-width="0.3519" stroke-linecap="round" stroke-linejoin="round" stroke-miterlimit="10" d="
			M96.868,120.247c0,0-4.416-21.409,1.347-34.429c1.601,14.192,5.76,18.581,8.801,22.921c2.711-14.013,13.208-24.854,13.208-24.854
			c-5.513,19.822,2.285,33.806,2.285,33.806c-0.393-14.98,18.237-29.703,18.237-29.703s-11.119,24.049-0.817,39.647
			c1.173-16.778,11.495-29.499,11.495-29.499s-3.753,16.245,0.704,28.41c0,0,4.195-30.327,21.181-52.439l-11.179,66.366
			l-41.009,0.042L96.868,120.247z"/>
		
			<path fill="#E03616" stroke="#E03616" stroke-width="0.3519" stroke-linecap="round" stroke-linejoin="round" stroke-miterlimit="10" d="
			M146.164,26.216c3.026,0.777,5.862,1.389,8.355,1.829c-7.104-1.473-11.899-6.284-28.964-8.454
			c-17.037-2.165-31.418,9.482-35.062,13.619c0,0,10.785-7.928,23.316-8.798c0,0,0.008,0,0.023,0
			C122.925,22.03,133.731,23.024,146.164,26.216z"/>
		
			<path fill="#E03616" stroke="#E03616" stroke-width="0.3519" stroke-linecap="round" stroke-linejoin="round" stroke-miterlimit="10" d="
			M101.308,68.358c-5.352,1.392-13.035,6.46-13.035,6.46s3.915-13.269,10.811-22.845c-8.036,0.817-14.057,5.168-14.057,5.168
			s3.377-15.565,10.439-22.168c0,0-8.201,2.107-15.048,6.583c11.631-22.026,34.896-28.622,35.058-28.668
			c-5.988,1.493-9.863,3.042-9.863,3.042C76.867,29.258,66.587,55.344,65.673,63.706c10.489-17.285,25.414-25.462,25.414-25.462
			s-24.31,26.96-26.244,57.739c12.013-29.154,26.314-36.638,26.314-36.638s-27.453,37.21-17.182,68.268
			c0,0,1.623-37.84,19.167-49.01c-13.195,35.319,12.245,61.832,12.245,61.832l-5.719,0.01
			c-11.339-13.701-15.253-30.922-15.253-30.922s-5.877,19.432-0.791,30.95h39.095C86.067,106.899,101.308,68.358,101.308,68.358z"/>
		<g>
			<path d="M185.605,70.94c9.907-4.839,18-7.814,18-7.814c4.213,3.272,7.562,11.36,7.493,11.64
				c-0.126,0.508,20.063-43.038-35.104-47.436c0,0-15.664-39.613-88.385-13.869c-11.298,3.204-30.502,7.062-37.45-1.152
				c0,0,7.419,16.35,26.571,14.467c-8.353,9.246-23.526,20.803-35.026,23.122c0,0,11.245,1.014,21.871-2.572
				c-8.67,9.487-22.146,22.242-36.084,27.725c0,0,13.076-0.43,24.855-6.323c-8.519,11.487-21.271,26.029-35.044,32.456
				c0,0,19.236-3.756,32.877-12.496c-5.596,8.602-13.535,18.795-24.214,28.199c0,0,15.662-3.078,26.574-13.146
				c-4.479,16.966-25.358,36.58-25.358,36.58l32.292,0.196l24.15-0.042c-5.086-11.519,0.791-30.95,0.791-30.95
				s3.914,17.221,15.253,30.922l5.719-0.01c0,0-25.44-26.513-12.245-61.832c-17.544,11.17-19.167,49.01-19.167,49.01
				C63.704,96.556,91.157,59.346,91.157,59.346s-14.301,7.483-26.314,36.638c1.935-30.779,26.244-57.739,26.244-57.739
				s-14.925,8.177-25.414,25.462c0.914-8.362,11.193-34.448,39.941-47.775c0,0,44.652-17.854,65.141,9.229
				c-1.666,1.549-2.76,2.952-7.488,3.636c-2.515,0.364-9.162-0.54-17.103-2.58c-20.246-5.196-36.187-4.582-47.422,6.979
				c16.744-0.425,23.875,14.856,44.485,11.339c-17.666,10.321-30.314,9.492-36.717,36.95c7.009-8.062,19.593-9.934,29.693-10.133
				c0,0-0.848,2.787-10.591,8.504c14.927,0.76,20.72-2.271,28.527-4.287c-4.979,6.972-7.264,19.158-7.264,19.158
				c10.83-18.932,16.688-20.691,16.711-20.698h0c-4.149,4.352-6.037,14.424-6.037,14.424c7.869-13.644,15.76-14.345,15.76-14.345
				s-14.194,18.27-0.401,46.53c-4.616-12.684-2.704-29.245,2.571-37.787c-9.439,24.342,16.382,57.678,16.382,57.678l18.437-0.032
				C190.49,138.26,167.463,79.804,185.605,70.94z M125.832,60.855c24.98-7.643,35.412-30.08,42.594-30.114
				c22.112-0.107,45.772,5.677,41.629,36.419c-6.525-22.694-48.254-9.42-70.941-7.36c22.019,2.163,50.578-7.229,62.033,1.193
				C187.417,65.754,158.829,68.764,125.832,60.855z"/>
		</g>
		<path fill="#E03616" stroke="#E03616" stroke-width="0.3519" stroke-miterlimit="10" d="M168.426,30.741
			c-7.182,0.034-17.613,22.472-42.594,30.114c32.997,7.908,61.585,4.898,75.315,0.138c-11.455-8.423-40.014,0.97-62.033-1.193
			c22.687-2.06,64.416-15.334,70.941,7.36C214.198,36.418,190.538,30.634,168.426,30.741z"/>
		
			<path fill="#B13212" stroke="#B13212" stroke-width="0.3519" stroke-linecap="round" stroke-linejoin="round" stroke-miterlimit="10" d="
			M148.549,55.26c0,0,7.983-14.254,16.164-22.955c-6.917,5.056-17.178,21.038-36.874,27.893c-0.628,0.305-1.282,0.539-2.007,0.658
			c32.997,7.908,61.585,4.898,75.315,0.138c-11.455-8.423-40.014,0.97-62.033-1.193c22.687-2.06,64.416-15.334,70.941,7.36
			C206.815,47.438,176.936,47.887,148.549,55.26z"/>
		
			<path fill="#B13212" stroke="#B13212" stroke-width="0.3519" stroke-linecap="round" stroke-linejoin="round" stroke-miterlimit="10" d="
			M175.479,82.851c-5.274,8.542-7.187,25.104-2.571,37.787c-13.793-28.261,0.401-46.53,0.401-46.53
			c-26.033,20.538-1.25,66.417-1.25,66.417l19.771-0.034C190.902,139.278,166.216,106.736,175.479,82.851z"/>
		
			<path fill="#B13212" stroke="#B13212" stroke-width="0.3519" stroke-linecap="round" stroke-linejoin="round" stroke-miterlimit="10" d="
			M101.308,68.358c0,0-21.109,37.327,10.35,72.17l11.061-0.055C122.719,140.474,88.176,112.143,101.308,68.358z"/>
		
			<path fill="#B13212" stroke="#B13212" stroke-width="0.3519" stroke-linecap="round" stroke-linejoin="round" stroke-miterlimit="10" d="
			M85.027,57.142l-9.761,13.004c0,0,7.2-23.837,20.2-35.172C95.467,34.974,90.126,39.358,85.027,57.142z"/>
		
			<path fill="#B13212" stroke="#B13212" stroke-width="0.3519" stroke-linecap="round" stroke-linejoin="round" stroke-miterlimit="10" d="
			M99.084,51.974c0,0-10.872,9.792-17.958,32.94l7.147-10.096C88.273,74.818,92.127,61.868,99.084,51.974z"/>
		
			<path fill="#B13212" stroke="#B13212" stroke-width="0.3519" stroke-linecap="round" stroke-linejoin="round" stroke-miterlimit="10" d="
			M80.419,41.557l-5.195,4.353c0,0,14.648-26.94,40.446-33.068C115.67,12.841,92.009,19.797,80.419,41.557z"/>
		
			<path fill="#E03616" stroke="#E03616" stroke-width="0.3519" stroke-linecap="round" stroke-linejoin="round" stroke-miterlimit="10" d="
			M173.309,74.107c0,0-22.652,8.513-16.569,66.408h15.319C172.059,140.516,148.876,96.22,173.309,74.107z"/>
		
			<path fill="#E03616" stroke="#E03616" stroke-width="0.3519" stroke-linecap="round" stroke-linejoin="round" stroke-miterlimit="10" d="
			M172.75,120.192c0,0-7.83-19.281,2.729-37.342c0,0-12.44,20.084,8.588,56.856L172.75,120.192z"/>
		
			<path fill="#B13212" stroke="#B13212" stroke-width="0.3519" stroke-linecap="round" stroke-linejoin="round" stroke-miterlimit="10" d="
			M90.493,33.21c5.175-2.694,9.683-3.632,12.829-3.947c3.189-2.262,6.685-3.846,10.478-4.843c0.004-0.003,0.01-0.008,0.01-0.008
			C102.768,24.256,90.493,33.21,90.493,33.21z"/>
		<path stroke="#000000" stroke-width="0.3519" stroke-linecap="round" stroke-linejoin="round" stroke-miterlimit="5" d="
			M170.95,40.419c0,0-4.665-1.487-2.842-4.487c2.525-4.155,14.232,2.846,14.232,2.846S169.843,36.389,170.95,40.419z"/>
		<g>
			<path stroke="#000000" stroke-width="0.3519" stroke-linecap="round" stroke-linejoin="round" stroke-miterlimit="5" d="
				M185.605,70.94c9.907-4.839,18-7.814,18-7.814c4.213,3.272,7.562,11.36,7.493,11.64c-0.126,0.508,20.063-43.038-35.104-47.436
				c0,0-15.664-39.613-88.385-13.869c-11.298,3.204-30.502,7.062-37.45-1.152c0,0,7.419,16.35,26.571,14.467
				c-8.353,9.246-23.526,20.803-35.026,23.122c0,0,11.245,1.014,21.871-2.572c-8.67,9.487-22.146,22.242-36.084,27.725
				c0,0,13.076-0.43,24.855-6.323c-8.519,11.487-21.271,26.029-35.044,32.456c0,0,19.236-3.756,32.877-12.496
				c-5.596,8.602-13.535,18.795-24.214,28.199c0,0,15.662-3.078,26.574-13.146c-4.479,16.966-25.358,36.58-25.358,36.58
				l32.292,0.196l24.15-0.042c-5.086-11.519,0.791-30.95,0.791-30.95s3.914,17.221,15.253,30.922l5.719-0.01
				c0,0-25.44-26.513-12.245-61.832c-17.544,11.17-19.167,49.01-19.167,49.01C63.704,96.556,91.157,59.346,91.157,59.346
				s-14.301,7.483-26.314,36.638c1.935-30.779,26.244-57.739,26.244-57.739s-14.925,8.177-25.414,25.462
				c0.914-8.362,11.193-34.448,39.941-47.775c0,0,44.652-17.854,65.141,9.229c-1.666,1.549-2.76,2.952-7.488,3.636
				c-2.515,0.364-9.162-0.54-17.103-2.58c-20.246-5.196-36.187-4.582-47.422,6.979c16.744-0.425,23.875,14.856,44.485,11.339
				c-17.666,10.321-30.314,9.492-36.717,36.95c7.009-8.062,19.593-9.934,29.693-10.133c0,0-0.848,2.787-10.591,8.504
				c14.927,0.76,20.72-2.271,28.527-4.287c-4.979,6.972-7.264,19.158-7.264,19.158c10.83-18.932,16.688-20.691,16.711-20.698h0
				c-4.149,4.352-6.037,14.424-6.037,14.424c7.869-13.644,15.76-14.345,15.76-14.345s-14.194,18.27-0.401,46.53
				c-4.616-12.684-2.704-29.245,2.571-37.787c-9.439,24.342,16.382,57.678,16.382,57.678l18.437-0.032
				C190.49,138.26,167.463,79.804,185.605,70.94z M125.832,60.855c24.98-7.643,35.412-30.08,42.594-30.114
				c22.112-0.107,45.772,5.677,41.629,36.419c-6.525-22.694-48.254-9.42-70.941-7.36c22.019,2.163,50.578-7.229,62.033,1.193
				C187.417,65.754,158.829,68.764,125.832,60.855z"/>
		</g>
		<g>
			<path fill="#B3B3B4" stroke="#B3B3B4" stroke-width="0.3519" stroke-miterlimit="10" d="M141.514,29.375h0.003
				c0,0-0.552-0.323-1.575-0.772C140.498,28.852,141.018,29.111,141.514,29.375z"/>
			<path fill="#B3B3B4" stroke="#B3B3B4" stroke-width="0.3519" stroke-miterlimit="10" d="M120.898,27.672
				c7.657-1.787,12.942-1.219,16.847,0.075c-4.075-1.401-11.198-2.917-20.113-0.973c0,0,6.359,8.779,19.43,8.527
				C134.164,35.305,125.931,34.66,120.898,27.672z"/>
			<path fill="#B3B3B4" stroke="#B3B3B4" stroke-width="0.3519" stroke-miterlimit="10" d="M139.694,28.494
				c0.056,0.024,0.113,0.048,0.168,0.072C139.807,28.543,139.751,28.519,139.694,28.494z"/>
		</g>
		<path fill="#FFFFFF" stroke="#FFFFFF" stroke-width="0.3519" stroke-linejoin="round" stroke-miterlimit="5" d="M146.41,32.246
			c-4.252-2.198-10.058-8.181-25.512-4.574c6.187,8.592,17.213,7.595,17.213,7.595s-3.263-1.464-4.817-5.07
			C135.817,29.081,143.507,31.044,146.41,32.246z"/>
		<g>
			<polygon fill="#E03616" points="74.423,140.516 83.625,140.474 74.414,140.489 			"/>
		</g>
	</g>
	<g>
		<g>
			<path d="M243.816,157.378l-9.099-8.625l8.915-2.058l-0.18-17.587c0,0-16.622-6.235-23.123-8.324l-0.074-0.022
				c-1.835-0.54-4.264-1.159-6.77-1.159c-1.852,0-3.566,0.341-5.103,1.014c-1.469,0.646-3.111,1.784-4.303,3.786l-0.072-8.378
				c-24.999-6.177-46.185-8.638-46.185-8.638l0.04,13.118l4.417,3.698l0.028,5.954l-17.444,8.864l-0.07-32.815
				c-40.322-2.006-78.736,1.595-118.713,14.143l-0.097,13.168l1.834,0.382c-1.332,2.885-2.66,5.771-3.983,8.655
				c-4.801-0.325-9.973-6.27-9.973-6.27s-2.175,4.214-1.305,8.683c0.001,0.005,0,0.011,0,0.016
				c-3.815-0.945-6.467-4.146-6.467-4.146c-3.255,5.723-0.706,13.349-0.706,13.349c-1.823-0.006-5.137-0.284-5.137-0.284
				s-2.624,12.784,9.213,15.947l-6.134,5.34l-0.136,14.329c0,0,14.166-5.678,22.086-7.957c2.398-0.69,4.529-2.499,6.234-4.997
				l0.047-0.071c0.913-1.423,1.751-2.995,2.563-4.809l0.022-0.049c0.063-0.139,0.124-0.274,0.185-0.405l0.393-0.856
				c0.31,1.354,0.892,2.671,2.007,3.846l0.028,0.028c1.346,1.381,3.874,2.8,7.269,1.881c2.618-0.707,20.355-5.752,35.792-7.042
				c0,0,0.048-9.52,0.06-11.998c0.202,1.399,0.626,2.952,1.562,4.455c1.058,1.69,2.615,3.088,4.502,4.042
				c2.319,1.171,5.098,1.764,8.261,1.764l0,0c0.77,0,1.58-0.035,2.4-0.104c0.503-0.041,1.007-0.081,1.509-0.12l-0.016,10.555
				l23.72-14.24l0.001,2.715c55.824-0.528,98.446,15.496,105.04,17.772l0.048,0.016c2.187,0.715,4.74,1.478,7.375,1.478c0,0,0,0,0,0
				c1.432,0,2.783-0.229,4.016-0.682c2.498-0.916,5.514-3.272,5.705-9.292L243.816,157.378z"/>
			<g>
				<g>
					<g>
						<path fill="#FFFFFF" d="M239.623,171.151c-0.05-3.932-0.101-7.864-0.151-11.795c-0.002-0.117-0.003-0.176-0.004-0.293
							c-0.094-0.091-0.142-0.136-0.236-0.226c-5.829-5.567-11.751-11.032-17.771-16.393c-0.017-1.575-0.034-3.151-0.051-4.727
							c1.384,0.45,2.766,0.911,4.145,1.381c0.009,0.887,0.019,1.773,0.029,2.662c0.004,0.326,0.006,0.49,0.01,0.817
							c0.259-0.07,0.389-0.104,0.648-0.175c4.232-1.127,8.481-2.181,12.751-3.159c0.089-0.021,0.133-0.03,0.222-0.051
							c-0.002-0.112-0.002-0.17-0.003-0.283c-0.027-2.097-0.055-4.193-0.081-6.29c-0.003-0.193-0.003-0.289-0.006-0.482
							c-0.174-0.067-0.26-0.102-0.435-0.169c-6.363-2.459-12.79-4.733-19.284-6.819c-5.553-1.644-12.694-1.292-12.599,6.136
							c0.033,3.665,0.067,7.331,0.101,10.995c0.001,0.117,0.002,0.176,0.003,0.293c0.096,0.08,0.144,0.12,0.24,0.2
							c6.06,5.073,12.026,10.255,17.904,15.539c0.018,1.576,0.036,3.151,0.053,4.728c-1.383-0.468-2.769-0.925-4.157-1.374
							c-0.01-0.888-0.019-1.406-0.029-2.294c-0.001-0.117-0.001-0.175-0.003-0.292c-0.096-0.086-0.144-0.128-0.24-0.212
							c-4.312-3.791-8.671-7.526-13.079-11.205c-0.26-0.217-0.39-0.325-0.651-0.542c0.003,0.316,0.004,0.475,0.007,0.79
							c0.066,7.147,0.133,13.927,0.198,21.073c0.002,0.192,0.002,0.289,0.005,0.481c0.177,0.049,0.267,0.073,0.444,0.123
							c6.811,1.896,13.555,4,20.238,6.307c2.684,0.871,5.855,1.818,8.642,0.802C238.806,175.844,239.671,173.461,239.623,171.151z"
							/>
					</g>
				</g>
				<g>
					<g>
						<path fill="#FFFFFF" d="M199.859,145.521c-0.003-0.334-0.004-0.501-0.007-0.834c-0.266,0.1-0.399,0.149-0.666,0.25
							c-4.383,1.66-8.737,3.391-13.065,5.189c-0.089,0.037-0.134,0.056-0.224,0.093c0.001,0.111,0.001,0.167,0.002,0.277
							c0.005,0.781,0.008,1.172,0.013,1.953c-1.652-0.334-3.305-0.657-4.961-0.971c-0.015-2.362-0.03-4.724-0.045-7.085
							c4.739-1.903,9.508-3.724,14.312-5.459c0.092-0.033,0.138-0.05,0.23-0.082c-0.001-0.114-0.001-0.171-0.002-0.284
							c-0.005-0.629-0.008-0.942-0.013-1.571c-0.001-0.191-0.002-0.288-0.004-0.48c-0.178-0.042-0.267-0.062-0.446-0.104
							c-4.695-1.093-9.41-2.089-14.146-2.986c-0.013-2.034-0.026-4.069-0.039-6.103c1.651,0.312,3.3,0.636,4.948,0.969
							c0.007,0.965,0.013,1.93,0.02,2.895c0.002,0.331,0.003,0.497,0.005,0.829c0.266-0.11,0.4-0.165,0.667-0.274
							c4.32-1.768,8.665-3.469,13.038-5.099c0.089-0.033,0.133-0.049,0.222-0.082c0-0.111-0.001-0.168-0.002-0.279
							c-0.017-2.094-0.035-4.188-0.052-6.281c-0.002-0.192-0.003-0.289-0.005-0.481c-0.177-0.044-0.266-0.066-0.444-0.111
							c-12.028-2.975-24.198-5.276-36.485-6.883c-0.18-0.022-0.27-0.033-0.449-0.057c0.001,0.192,0.001,0.288,0.002,0.48
							c0.003,0.628,0.004,0.941,0.007,1.569c0,0.104,0,0.154,0,0.257c0.081,0.068,0.121,0.102,0.202,0.169
							c1.409,1.182,2.814,2.368,4.214,3.562c0.065,14.039,0.135,28.078,0.204,42.116c0.001,0.192,0.001,0.288,0.002,0.48
							c0.181,0.026,0.271,0.039,0.451,0.064c10.855,1.573,21.609,3.685,32.256,6.317c0.179,0.044,0.268,0.067,0.447,0.111
							c-0.001-0.192-0.003-0.288-0.004-0.48C199.981,159.917,199.92,152.719,199.859,145.521z"/>
					</g>
				</g>
				<g>
					<g>
						<path fill="#FFFFFF" d="M159.595,137.402c-0.002-0.331-0.002-0.497-0.003-0.828c-0.27,0.133-0.404,0.199-0.673,0.332
							c-4.448,2.21-8.861,4.483-13.242,6.823c-0.091,0.048-0.136,0.072-0.227,0.121c0,0.111,0,0.167,0,0.278
							c0.002,0.912,0.005,1.824,0.007,2.736c-1.667-0.119-3.335-0.228-5.004-0.325c-0.023-11.868-0.049-23.736-0.07-35.604
							c0-0.192,0-0.288-0.001-0.48c-0.18-0.011-0.271-0.016-0.45-0.026c-5.887-0.315-11.777-0.476-17.673-0.481
							c-0.18,0-0.271,0-0.451,0c0,0.192,0,0.289,0,0.48c0,0.628,0,0.942,0,1.569c0,0.103,0,0.154,0,0.257
							c0.081,0.058,0.121,0.086,0.201,0.143c1.41,1.001,2.817,2.007,4.221,3.017c0.006,14.034,0.011,28.067,0.017,42.102
							c0,0.192,0,0.288,0,0.48c0.182,0.002,0.272,0.003,0.454,0.006c10.878,0.165,21.727,0.87,32.536,2.112
							c0.18,0.021,0.271,0.031,0.451,0.053c0-0.192,0-0.288-0.001-0.48C159.655,152.258,159.625,144.83,159.595,137.402z"/>
					</g>
				</g>
				<g>
					<g>
						<path fill="#FFFFFF" d="M80.341,112.792c-0.18,0.023-0.27,0.036-0.449,0.061c0,0.192-0.001,0.289-0.002,0.481
							c-0.002,0.628-0.004,0.94-0.007,1.568c0,0.104-0.001,0.155-0.001,0.258c0.08,0.046,0.119,0.069,0.199,0.115
							c1.399,0.812,2.796,1.63,4.189,2.452c-0.046,11.161-0.094,22.321-0.141,33.482c0.081,1.474,0.271,2.837,1.064,4.119
							c0.68,1.085,1.681,1.936,2.819,2.511c2.579,1.3,5.525,1.383,8.346,1.221c2.066-0.168,4.133-0.32,6.201-0.454
							c-0.005,2.192-0.009,4.386-0.014,6.579c-0.001,0.318-0.001,0.478-0.002,0.796c0.266-0.165,0.399-0.247,0.666-0.412
							c4.651-2.868,9.342-5.666,14.078-8.393c0.097-0.056,0.146-0.083,0.242-0.139c0-0.116,0-0.174,0-0.29
							c0.005-10.459,0.013-20.918,0.017-31.377c0-0.34,0-0.51,0-0.849c-0.274,0.179-0.411,0.269-0.685,0.448
							c-6.234,4.098-12.386,8.313-18.462,12.641c-0.021,0.016-0.032,0.023-0.053,0.039c0.012-4.944,0.025-9.889,0.039-14.832
							c1.663-0.125,3.326-0.24,4.99-0.345c-0.002,0.887-0.003,1.771-0.005,2.658c0,0.326-0.001,0.489-0.001,0.816
							c0.268-0.175,0.403-0.263,0.671-0.437c4.388-2.843,8.813-5.626,13.279-8.346c0.093-0.057,0.139-0.085,0.232-0.141
							c0-0.113,0-0.17,0-0.283c0.001-2.092,0.002-4.184,0.003-6.275c0-0.192,0-0.288,0-0.48c-0.181,0.003-0.271,0.005-0.452,0.008
							C104.8,110.23,92.539,111.167,80.341,112.792z M98.32,146.962c0.008-2.818,0.015-5.636,0.022-8.453
							c0.114-0.009,0.171-0.014,0.286-0.021c1.57-0.12,3.141-0.228,4.713-0.324c-0.006,2.818-0.012,5.636-0.018,8.453
							C101.655,146.721,99.988,146.836,98.32,146.962z"/>
					</g>
				</g>
				<g>
					<g>
						<path fill="#FFFFFF" d="M57.683,116.696c-0.179,0.038-0.268,0.057-0.446,0.095c-0.002,0.191-0.002,0.288-0.004,0.48
							c-0.004,0.628-0.006,0.941-0.011,1.57c0,0.103-0.001,0.154-0.002,0.257c0.08,0.04,0.119,0.061,0.198,0.101
							c1.388,0.709,2.773,1.425,4.155,2.147c-0.094,14.043-0.187,28.086-0.282,42.129c-0.001,0.191-0.002,0.288-0.003,0.48
							c0.18-0.035,0.27-0.053,0.449-0.088c4.395-0.849,8.802-1.614,13.226-2.295c0.181-0.027,0.271-0.041,0.451-0.068
							c0.001-0.192,0.001-0.288,0.002-0.48c0.081-15.694,0.16-31.389,0.243-47.083c0.001-0.192,0.001-0.289,0.002-0.48
							c-0.179,0.026-0.269,0.04-0.448,0.067C69.341,114.432,63.5,115.488,57.683,116.696z"/>
					</g>
				</g>
				<g>
					<g>
						<path fill="#FFFFFF" d="M52.782,160.293c0.108-14.04,0.215-28.08,0.321-42.121c0.001-0.192,0.002-0.288,0.004-0.48
							c-0.179,0.04-0.268,0.06-0.446,0.101c-7.325,1.674-14.585,3.588-21.785,5.739c-0.176,0.054-0.265,0.08-0.441,0.133
							c-0.002,0.193-0.003,0.289-0.005,0.481c-0.006,0.629-0.009,0.943-0.016,1.572c-0.001,0.122-0.001,0.183-0.003,0.305
							c0.101,0.021,0.151,0.032,0.252,0.054c1.66,0.356,3.318,0.723,4.975,1.098c-3.163,6.794-6.305,13.596-9.429,20.407
							c-3.461-0.019-6.131-0.662-8.16-1.966l-0.688-0.441l0.058,0.814c0.146,2.06,1.043,4.526,3.048,5.613
							c-0.409,0.052-0.842,0.078-1.294,0.079h0c-4.088,0-8.585-2.146-8.631-2.167l-0.609-0.294l0.023,0.677
							c0.002,0.078,0.076,1.939,1.015,3.825c0.78,1.568,2.303,3.402,5.215,3.804c-3.461,1.281-8.508,1.373-8.567,1.374l-0.847,0.013
							l0.536,0.655c1.754,2.145,4.151,3.232,7.128,3.232l0,0c1.582,0,3.337-0.309,5.25-0.922c-1.195,2.636-2.39,5.271-3.58,7.909
							c-2.742,2.314-5.465,4.649-8.17,7.007c-0.104,0.09-0.155,0.135-0.259,0.226c-0.001,0.124-0.002,0.187-0.003,0.311
							c-0.008,0.63-0.012,0.943-0.02,1.573c-0.002,0.192-0.004,0.289-0.006,0.481c0.175-0.066,0.263-0.101,0.438-0.167
							c5.375-2.031,10.792-3.933,16.258-5.704c1.615-0.529,2.677-1.737,3.669-3.049c0.866-1.276,1.526-2.673,2.153-4.076
							c0.075-0.166,0.148-0.328,0.22-0.484c1.72-3.762,3.424-7.533,5.197-11.271c1.097-0.853,2.197-1.702,3.299-2.549
							c-0.035,3.755-0.068,7.51-0.103,11.265c-0.025,1.355,0.246,2.848,1.207,3.867c1,1.027,2.23,0.961,3.531,0.76
							c4.345-1.104,8.708-2.126,13.092-3.063c0.18-0.038,0.269-0.058,0.449-0.095c0.001-0.192,0.002-0.289,0.003-0.481
							c0.005-0.785,0.008-1.178,0.014-1.963c0.001-0.109,0.001-0.164,0.002-0.273c-0.088-0.037-0.131-0.057-0.219-0.094
							C55.503,161.429,54.144,160.857,52.782,160.293z"/>
					</g>
				</g>
			</g>
			<g>
				<g>
					<g>
						<path fill="#FFFFFF" d="M233.824,177.49c-2.041,0-4.128-0.622-6.09-1.259c-6.679-2.306-13.48-4.425-20.224-6.303l-0.613-0.169
							l-0.089-0.288l-0.217-23.105l1.235,1.027c4.376,3.652,8.779,7.425,13.086,11.211l0.358,0.317l0.03,2.488
							c1.152,0.373,2.302,0.753,3.451,1.139l-0.046-4.077c-5.864-5.27-11.845-10.459-17.78-15.428l-0.365-0.304l-0.106-11.451
							c-0.028-2.232,0.579-3.995,1.805-5.237c1.329-1.346,3.398-2.057,5.985-2.057c1.634,0,3.454,0.283,5.262,0.817
							c6.451,2.072,12.946,4.369,19.311,6.829l0.656,0.255l0.1,7.577l-0.501,0.114c-4.219,0.967-8.505,2.029-12.74,3.156
							l-1.085,0.294l-0.041-3.686c-1.145-0.389-2.291-0.771-3.438-1.147l0.044,4.081c5.922,5.276,11.864,10.758,17.664,16.297
							l0.343,0.33l0.157,12.233c0.06,2.884-1.2,5.084-3.37,5.882C235.765,177.335,234.83,177.49,233.824,177.49L233.824,177.49z"/>
						<path fill="#FFFFFF" d="M214.244,124.347c1.706,0,3.504,0.313,5.162,0.804c6.494,2.086,12.921,4.36,19.284,6.819
							c0.175,0.067,0.261,0.102,0.435,0.169c0.003,0.193,0.003,0.289,0.006,0.482c0.026,2.097,0.054,4.193,0.081,6.29
							c0.001,0.113,0.001,0.171,0.003,0.283c-0.089,0.021-0.133,0.03-0.222,0.051c-4.27,0.979-8.519,2.032-12.751,3.159
							c-0.259,0.07-0.389,0.104-0.648,0.175c-0.003-0.327-0.006-0.491-0.01-0.817c-0.01-0.889-0.02-1.775-0.029-2.662
							c-1.379-0.47-2.76-0.931-4.145-1.381c0.017,1.575,0.034,3.151,0.051,4.727c6.02,5.36,11.941,10.825,17.771,16.393
							c0.094,0.09,0.142,0.135,0.236,0.226c0.001,0.117,0.002,0.176,0.004,0.293c0.05,3.931,0.101,7.863,0.151,11.795
							c0.048,2.31-0.817,4.692-3.14,5.547c-0.858,0.313-1.753,0.44-2.66,0.44c-2.035,0-4.125-0.64-5.982-1.242
							c-6.683-2.307-13.427-4.41-20.238-6.307c-0.178-0.05-0.267-0.074-0.444-0.123c-0.003-0.192-0.003-0.289-0.005-0.481
							c-0.065-7.146-0.132-13.926-0.198-21.073c-0.002-0.315-0.004-0.474-0.007-0.79c0.261,0.217,0.391,0.325,0.651,0.542
							c4.408,3.679,8.767,7.414,13.079,11.205c0.096,0.084,0.144,0.126,0.24,0.212c0.001,0.117,0.001,0.175,0.003,0.292
							c0.01,0.888,0.019,1.406,0.029,2.294c1.388,0.449,2.774,0.906,4.157,1.374c-0.017-1.576-0.035-3.151-0.053-4.728
							c-5.877-5.284-11.844-10.466-17.904-15.539c-0.096-0.08-0.145-0.12-0.24-0.2c-0.001-0.117-0.002-0.176-0.003-0.293
							c-0.034-3.664-0.068-7.33-0.101-10.995C206.74,126.075,210.235,124.347,214.244,124.347 M214.244,123.644
							c-2.683,0-4.839,0.747-6.235,2.161c-1.294,1.312-1.936,3.158-1.906,5.49l0.068,7.397l0.033,3.596l0.001,0.085l0.002,0.207
							l0.002,0.325l0.25,0.209l0.176,0.146l0.066,0.055c5.892,4.932,11.831,10.084,17.654,15.315l0.039,3.427
							c-0.914-0.306-1.829-0.606-2.745-0.904l-0.008-0.643l-0.015-1.146l-0.001-0.145l-0.001-0.148l-0.004-0.31l-0.231-0.206
							l-0.246-0.218c-4.308-3.787-8.713-7.562-13.091-11.215l-0.189-0.157l-0.463-0.386l-1.167-0.971l0.014,1.519l0.007,0.789
							l0.094,10.006l0.104,11.068l0.001,0.177l0.003,0.309l0.008,0.527l0.509,0.141l0.087,0.023l0.354,0.099
							c6.738,1.876,13.533,3.994,20.198,6.294c2.002,0.65,4.12,1.28,6.211,1.28c1.047,0,2.023-0.162,2.901-0.482
							c2.319-0.854,3.665-3.18,3.602-6.223l-0.102-7.962l-0.049-3.827l-0.001-0.087l-0.003-0.203l-0.002-0.296l-0.213-0.205
							l-0.196-0.188l-0.042-0.041c-5.764-5.505-11.669-10.955-17.556-16.201l-0.022-2.053l-0.015-1.382
							c0.912,0.301,1.822,0.604,2.732,0.913l0.016,1.466l0.008,0.698l0.003,0.296l0.006,0.521l0.009,0.91l0.879-0.239l0.335-0.09
							l0.312-0.084c4.227-1.126,8.509-2.187,12.724-3.153l0.123-0.027l0.1-0.023l0.559-0.128l-0.012-0.573l-0.003-0.206l0-0.067
							l-0.027-2.107l-0.054-4.186l-0.003-0.241l-0.003-0.243l-0.007-0.474l-0.442-0.172l-0.18-0.07l-0.256-0.099
							c-6.37-2.462-12.871-4.762-19.321-6.833C217.766,123.931,215.912,123.644,214.244,123.644L214.244,123.644z"/>
					</g>
				</g>
				<g>
					<g>
						<path fill="#FFFFFF" d="M199.516,167.826c-10.638-2.631-21.479-4.754-32.222-6.311l-0.751-0.108l-0.207-42.738
							c-1.358-1.157-2.722-2.309-4.089-3.455l-0.327-0.275l-0.012-2.775l0.399-0.043l0.447,0.056
							c12.197,1.595,24.486,3.913,36.526,6.891l0.709,0.178l0.062,7.561l-0.359,0.135c-4.39,1.636-8.773,3.35-13.12,5.128
							l-1.148,0.475l-0.027-3.961c-1.413-0.284-2.828-0.562-4.244-0.831l0.035,5.385c4.606,0.877,9.273,1.864,13.876,2.936
							l0.715,0.168l0.023,2.771l-0.236,0.177l-0.227,0.081c-4.673,1.688-9.408,3.492-14.078,5.365l0.042,6.556
							c1.42,0.271,2.839,0.547,4.256,0.832l-0.015-2.034l0.443-0.184c4.339-1.803,8.738-3.551,13.075-5.193l1.078-0.404l0.064,0.48
							l0.197,23.361L199.516,167.826z"/>
						<path fill="#FFFFFF" d="M162.261,112.469c0.18,0.023,0.27,0.034,0.449,0.057c12.287,1.606,24.457,3.908,36.485,6.883
							c0.178,0.045,0.267,0.067,0.444,0.111c0.001,0.192,0.003,0.289,0.005,0.481c0.017,2.094,0.035,4.188,0.052,6.281
							c0,0.111,0.001,0.168,0.002,0.279c-0.088,0.033-0.132,0.049-0.222,0.082c-4.373,1.63-8.718,3.331-13.038,5.099
							c-0.267,0.109-0.4,0.164-0.667,0.274c-0.002-0.332-0.003-0.498-0.005-0.829c-0.007-0.965-0.013-1.93-0.02-2.895
							c-1.648-0.333-3.297-0.656-4.948-0.969c0.013,2.033,0.026,4.068,0.039,6.103c4.737,0.897,9.451,1.894,14.146,2.986
							c0.179,0.042,0.268,0.062,0.446,0.104c0.002,0.192,0.003,0.289,0.004,0.48c0.005,0.629,0.007,0.942,0.013,1.571
							c0.001,0.113,0.001,0.17,0.002,0.284c-0.092,0.032-0.138,0.049-0.23,0.082c-4.804,1.735-9.573,3.556-14.312,5.459
							c0.015,2.361,0.03,4.723,0.045,7.085c1.656,0.313,3.309,0.637,4.961,0.971c-0.005-0.781-0.008-1.172-0.013-1.953
							c-0.001-0.11-0.001-0.166-0.002-0.277c0.089-0.037,0.134-0.056,0.224-0.093c4.328-1.799,8.682-3.529,13.065-5.189
							c0.266-0.101,0.399-0.15,0.666-0.25c0.002,0.333,0.004,0.5,0.007,0.834c0.061,7.197,0.122,14.396,0.183,21.594
							c0.001,0.192,0.002,0.288,0.004,0.48c-0.179-0.044-0.268-0.067-0.447-0.111c-10.647-2.633-21.401-4.744-32.256-6.317
							c-0.18-0.025-0.271-0.038-0.451-0.064c-0.001-0.192-0.001-0.288-0.002-0.48c-0.069-14.038-0.139-28.077-0.204-42.116
							c-1.4-1.193-2.805-2.38-4.214-3.562c-0.081-0.067-0.121-0.101-0.202-0.169c0-0.103,0-0.153,0-0.257
							c-0.003-0.628-0.004-0.941-0.007-1.569C162.263,112.757,162.262,112.661,162.261,112.469 M161.553,111.667l0.004,0.806
							l0,0.095l0.002,0.386l0.003,0.783l0.003,0.785l0,0.257l0.001,0.324l0.247,0.21l0.141,0.117l0.064,0.055
							c1.325,1.11,2.646,2.227,3.963,3.348c0.05,10.934,0.104,21.868,0.158,32.801l0.044,8.993l0.001,0.237l0.001,0.243l0.003,0.605
							l0.599,0.087l0.43,0.062c10.754,1.559,21.584,3.68,32.21,6.308l0.221,0.055l0.227,0.057l0.878,0.216l-0.007-0.905
							l-0.001-0.195l-0.002-0.283l-0.157-18.587l-0.026-3.009l-0.007-0.833l-0.007-1.007l-0.943,0.353l-0.061,0.022l-0.607,0.229
							c-4.341,1.645-8.744,3.393-13.086,5.198l-0.111,0.046l-0.112,0.046l-0.438,0.183l0.004,0.474l0.001,0.106l0.001,0.171
							l0.006,0.976l0.001,0.111c-1.183-0.236-2.367-0.468-3.551-0.693l-0.014-2.155l-0.024-3.872
							c4.594-1.839,9.249-3.611,13.844-5.271l0.224-0.08l0.475-0.167l-0.004-0.503l0-0.094l-0.002-0.19l-0.013-1.571l-0.004-0.481
							l-0.005-0.552l-0.537-0.126l-0.245-0.058l-0.201-0.048c-4.515-1.051-9.089-2.02-13.607-2.884l-0.016-2.483l-0.014-2.185
							c1.181,0.226,2.36,0.458,3.539,0.694l0.006,0.89l0.01,1.433l0.002,0.412l0.003,0.416l0.006,1.047l0.967-0.4l0.562-0.231
							l0.103-0.042c4.343-1.777,8.723-3.49,13.016-5.091l0.092-0.033l0.131-0.049l0.458-0.173l-0.002-0.489l-0.001-0.144
							l-0.001-0.136l-0.026-3.144l-0.026-3.141l-0.002-0.179l-0.003-0.303l-0.004-0.546l-0.53-0.132l-0.353-0.088l-0.088-0.022
							c-12.056-2.981-24.357-5.302-36.565-6.898l-0.133-0.017l-0.316-0.04L161.553,111.667L161.553,111.667z"/>
					</g>
				</g>
				<g>
					<g>
						<path fill="#FFFFFF" d="M159.193,160.463c-10.754-1.236-21.689-1.946-32.5-2.11l-0.801-0.01l-0.017-42.749
							c-1.354-0.975-2.712-1.944-4.072-2.91l-0.35-0.249v-2.839h0.803c5.88,0.006,11.832,0.168,17.692,0.481l0.782,0.047
							l0.071,36.084c1.435,0.085,2.868,0.179,4.3,0.279l-0.006-2.847l0.415-0.223c4.349-2.322,8.808-4.62,13.25-6.827l1.18-0.581
							l0.097,24.553L159.193,160.463z"/>
						<path fill="#FFFFFF" d="M122.258,109.947c5.896,0.006,11.786,0.166,17.673,0.481c0.18,0.011,0.271,0.016,0.45,0.026
							c0,0.192,0.001,0.288,0.001,0.48c0.021,11.868,0.046,23.736,0.07,35.604c1.669,0.098,3.337,0.206,5.004,0.325
							c-0.002-0.912-0.005-1.824-0.007-2.736c0-0.111,0-0.167,0-0.278c0.091-0.049,0.136-0.073,0.227-0.121
							c4.381-2.34,8.794-4.613,13.242-6.823c0.27-0.133,0.404-0.199,0.673-0.332c0.001,0.331,0.001,0.497,0.003,0.828
							c0.03,7.428,0.061,14.855,0.09,22.283c0.001,0.192,0.001,0.288,0.001,0.48c-0.181-0.021-0.271-0.031-0.451-0.053
							c-10.809-1.242-21.657-1.947-32.536-2.112c-0.182-0.003-0.272-0.004-0.454-0.006c0-0.192,0-0.288,0-0.48
							c-0.006-14.034-0.011-28.067-0.017-42.102c-1.404-1.01-2.811-2.016-4.221-3.017c-0.081-0.057-0.121-0.085-0.201-0.143
							c0-0.103,0-0.154,0-0.257c0-0.627,0-0.941,0-1.569c0-0.191,0-0.288,0-0.48C121.987,109.947,122.078,109.947,122.258,109.947
							 M122.258,109.243L122.258,109.243h-0.452h-0.704v0.704v0.242l0,0.238l0,1.569v0.257v0.362l0.294,0.21l0.206,0.146
							c1.309,0.929,2.616,1.863,3.922,2.802l0.008,20.689l0.008,21.051v0.48v0.696l0.696,0.008l0.45,0.006
							c10.799,0.163,21.722,0.873,32.466,2.107l0.23,0.026l0.219,0.026l0.787,0.093v-0.792l-0.001-0.482l-0.054-13.353l-0.036-8.932
							l-0.003-0.826l-0.003-1.127l-1.011,0.497l-0.337,0.166l-0.336,0.166c-4.447,2.209-8.909,4.508-13.263,6.833l-0.228,0.122
							l-0.37,0.199l-0.001,0.421v0.142l0,0.137l0.003,1.377l0.001,0.604c-1.198-0.084-2.397-0.161-3.596-0.233l-0.021-10.272
							c-0.017-8.224-0.033-16.446-0.048-24.67l0-0.344l0-0.138l-0.001-0.661l-0.66-0.039l-0.227-0.014l-0.224-0.013
							C134.103,109.412,128.144,109.249,122.258,109.243L122.258,109.243z"/>
					</g>
				</g>
				<g>
					<g>
						<path fill="#FFFFFF" d="M102.207,158.982c-1.941,0.127-3.881,0.271-5.82,0.429c-0.657,0.038-1.313,0.062-1.969,0.062
							c0,0,0,0,0,0c-2.691,0-4.777-0.419-6.562-1.319c-1.25-0.632-2.273-1.544-2.959-2.639c-0.804-1.3-1.028-2.653-1.117-4.286
							l0.14-33.302c-1.335-0.787-2.673-1.569-4.013-2.348l-0.289-0.168l-0.086-0.252l0.001-0.186l0.352-0.115l-0.352-0.002
							l0.01-2.312l0.755-0.102c12.185-1.624,24.567-2.566,36.8-2.801l0.812-0.014l-0.005,7.596l-0.4,0.242
							c-4.385,2.67-8.85,5.477-13.271,8.34l-1.212,0.789l0.003-3.747c-1.429,0.091-2.858,0.19-4.287,0.296l-0.036,13.822
							c5.988-4.255,12.012-8.375,17.969-12.29l1.231-0.805l-0.019,33.369l-0.418,0.24c-4.686,2.698-9.419,5.52-14.069,8.388
							l-1.204,0.746L102.207,158.982z M98.673,146.583c1.433-0.107,2.866-0.206,4.3-0.297l0.017-7.749
							c-1.433,0.09-2.865,0.188-4.296,0.298L98.673,146.583z"/>
						<path fill="#FFFFFF" d="M117.554,109.986c0,0.192,0,0.288,0,0.48c-0.001,2.092-0.002,4.184-0.003,6.275
							c0,0.113,0,0.17,0,0.283c-0.093,0.056-0.139,0.084-0.232,0.141c-4.466,2.72-8.891,5.503-13.279,8.346
							c-0.269,0.174-0.403,0.262-0.671,0.437c0-0.327,0.001-0.49,0.001-0.816c0.002-0.887,0.003-1.771,0.005-2.658
							c-1.664,0.104-3.327,0.22-4.99,0.345c-0.013,4.943-0.026,9.888-0.039,14.832c0.021-0.016,0.032-0.023,0.053-0.039
							c6.076-4.327,12.229-8.543,18.462-12.641c0.273-0.18,0.411-0.27,0.685-0.448c0,0.339,0,0.509,0,0.849
							c-0.004,10.459-0.012,20.918-0.017,31.377c0,0.116,0,0.174,0,0.29c-0.097,0.056-0.146,0.083-0.242,0.139
							c-4.735,2.727-9.427,5.524-14.078,8.393c-0.267,0.165-0.399,0.247-0.666,0.412c0.001-0.318,0.001-0.478,0.002-0.796
							c0.005-2.193,0.009-4.387,0.014-6.579c-2.068,0.134-4.135,0.286-6.201,0.454c-0.643,0.037-1.292,0.062-1.941,0.062
							c-2.203,0-4.413-0.278-6.404-1.282c-1.138-0.575-2.139-1.426-2.819-2.511c-0.793-1.282-0.983-2.646-1.064-4.119
							c0.046-11.161,0.094-22.321,0.141-33.482c-1.393-0.822-2.79-1.64-4.189-2.452c-0.08-0.046-0.12-0.069-0.199-0.115
							c0-0.103,0-0.154,0.001-0.258c0.003-0.628,0.004-0.94,0.007-1.568c0.001-0.192,0.002-0.289,0.002-0.481
							c0.18-0.024,0.27-0.037,0.449-0.061c12.197-1.625,24.458-2.562,36.761-2.798C117.283,109.991,117.374,109.989,117.554,109.986
							 M98.32,146.962c1.667-0.126,3.335-0.241,5.004-0.346c0.006-2.817,0.012-5.635,0.018-8.453
							c-1.572,0.097-3.144,0.204-4.713,0.324c-0.115,0.008-0.172,0.013-0.286,0.021C98.335,141.326,98.329,144.144,98.32,146.962
							 M118.26,109.271l-0.717,0.011l-0.227,0.004l-0.225,0.004c-12.249,0.235-24.644,1.179-36.843,2.805l-0.323,0.043l-0.128,0.018
							l-0.607,0.082l-0.001,0.613l-0.001,0.304l-0.001,0.176l-0.007,1.525l0,0.119l0,0.186v0.406l0.352,0.203l0.083,0.049
							l0.117,0.067c1.279,0.742,2.557,1.49,3.833,2.243l-0.068,16.337l-0.07,16.741c0.093,1.729,0.327,3.131,1.169,4.492
							c0.722,1.152,1.793,2.108,3.1,2.769c1.837,0.927,3.973,1.357,6.722,1.357c0.604,0,1.252-0.021,1.982-0.062
							c1.862-0.15,3.69-0.286,5.455-0.404l-0.005,2.51l-0.007,3.315l-0.001,0.396l-0.001,0.4l-0.004,1.269l1.079-0.669l0.454-0.281
							l0.211-0.13c4.646-2.865,9.376-5.686,14.058-8.381l0.119-0.068l0.123-0.07l0.353-0.203v-0.407v-0.29l0.007-12.551l0.01-18.826
							l0-0.848l0.002-1.302l-1.09,0.711l-0.687,0.45c-5.792,3.807-11.647,7.807-17.421,11.9l0.033-12.812
							c1.194-0.088,2.388-0.171,3.583-0.248l-0.001,0.564l-0.002,1.342l-0.001,0.407l0,0.41l-0.002,1.302l1.09-0.711l0.669-0.436
							c4.419-2.862,8.881-5.667,13.263-8.335l0.228-0.139l0.341-0.205v-0.398l0-0.28l0.002-3.141l0.001-3.138l0-0.479
							L118.26,109.271L118.26,109.271z M99.045,139.161c1.169-0.088,2.372-0.171,3.592-0.249l-0.007,3.472l-0.007,3.572
							c-1.199,0.077-2.397,0.159-3.596,0.247l0.015-5.556L99.045,139.161L99.045,139.161z"/>
					</g>
				</g>
				<g>
					<g>
						<path fill="#FFFFFF" d="M61.22,121.559c-1.317-0.688-2.638-1.37-3.962-2.046l-0.392-0.198l0.022-2.809l0.722-0.153
							c5.813-1.208,11.717-2.274,17.549-3.172l0.856-0.128l-0.25,48.755l-0.749,0.113c-4.375,0.674-8.82,1.444-13.211,2.293
							l-0.871,0.17L61.22,121.559z"/>
						<path fill="#FFFFFF" d="M75.661,113.461c-0.001,0.191-0.001,0.288-0.002,0.48c-0.083,15.694-0.162,31.389-0.243,47.083
							c-0.001,0.192-0.001,0.288-0.002,0.48c-0.18,0.027-0.27,0.041-0.451,0.068c-4.424,0.681-8.831,1.446-13.226,2.295
							c-0.179,0.035-0.27,0.053-0.449,0.088c0.001-0.192,0.002-0.289,0.003-0.48c0.095-14.043,0.188-28.086,0.282-42.129
							c-1.382-0.723-2.767-1.438-4.155-2.147c-0.08-0.04-0.119-0.061-0.198-0.101c0.001-0.103,0.001-0.154,0.002-0.257
							c0.005-0.629,0.007-0.942,0.011-1.57c0.001-0.192,0.002-0.289,0.004-0.48c0.178-0.038,0.267-0.057,0.446-0.095
							c5.816-1.208,11.658-2.265,17.53-3.168C75.392,113.501,75.482,113.487,75.661,113.461 M76.369,112.646l-0.811,0.119
							l-0.452,0.068c-5.839,0.897-11.75,1.966-17.567,3.174l-0.198,0.042l-0.252,0.054l-0.551,0.118l-0.005,0.563l-0.003,0.343
							l-0.001,0.139l-0.003,0.446l-0.008,1.124l-0.002,0.256l-0.004,0.438l0.392,0.197L57,119.775l0.103,0.053
							c1.255,0.641,2.512,1.289,3.765,1.943L60.8,131.819l-0.212,31.651l-0.002,0.345l-0.001,0.136l-0.007,0.861l0.846-0.166
							l0.169-0.033l0.28-0.055c4.385-0.847,8.826-1.617,13.197-2.29l0.31-0.047l0.14-0.021l0.595-0.091l0.003-0.602l0.001-0.24
							l0.001-0.24l0.088-17.073l0.155-30.01l0.001-0.24l0.001-0.24L76.369,112.646L76.369,112.646z"/>
					</g>
				</g>
				<g>
					<g>
						<path fill="#FFFFFF" d="M7.328,176.944l0.12-0.189l0.26-0.227c2.669-2.327,5.399-4.668,8.112-6.959
							c1.073-2.377,2.149-4.754,3.227-7.13c-1.659,0.473-3.207,0.712-4.609,0.712c-3.086,0-5.576-1.131-7.4-3.361l-0.997-1.219
							l1.575-0.023c0.044-0.001,3.977-0.078,7.229-0.965c-2.265-0.722-3.516-2.355-4.187-3.705
							c-0.991-1.989-1.051-3.953-1.051-3.973l-0.044-1.256l1.134,0.547c0.183,0.087,4.539,2.133,8.478,2.133
							c0.093-0.001,0.185-0.002,0.275-0.004c-1.554-1.328-2.253-3.525-2.38-5.312l-0.107-1.516l1.278,0.821
							c1.928,1.238,4.463,1.863,7.746,1.907c3.032-6.61,6.082-13.212,9.15-19.806c-1.514-0.341-3.029-0.675-4.545-1.001
							l-0.534-0.113l0.03-2.901l0.688-0.211c7.194-2.149,14.531-4.082,21.809-5.745l0.881-0.198l-0.328,42.808
							c1.29,0.535,2.577,1.077,3.861,1.625l0.435,0.185l-0.024,3.237l-0.726,0.152c-4.345,0.929-8.746,1.958-13.078,3.06
							c-0.432,0.068-0.904,0.132-1.377,0.132c-1.045,0-1.837-0.313-2.493-0.987c-1.121-1.188-1.329-2.896-1.306-4.119l0.097-10.538
							c-0.888,0.684-1.774,1.368-2.658,2.056c-1.424,3.004-2.827,6.079-4.185,9.055l-1.194,2.619
							c-0.577,1.291-1.269,2.782-2.182,4.128c-0.94,1.245-2.081,2.605-3.851,3.186c-5.423,1.758-10.888,3.676-16.243,5.699
							l-0.919,0.35L7.328,176.944z"/>
						<path fill="#FFFFFF" d="M53.107,117.691c-0.002,0.192-0.002,0.288-0.004,0.48c-0.106,14.041-0.213,28.081-0.321,42.121
							c1.362,0.564,2.721,1.136,4.077,1.714c0.087,0.037,0.131,0.057,0.219,0.094c-0.001,0.109-0.001,0.164-0.002,0.273
							c-0.006,0.785-0.009,1.178-0.014,1.963c-0.001,0.192-0.002,0.289-0.003,0.481c-0.18,0.037-0.269,0.057-0.449,0.095
							c-4.384,0.938-8.747,1.959-13.092,3.063c-0.44,0.068-0.873,0.121-1.291,0.121c-0.817,0-1.579-0.201-2.24-0.881
							c-0.961-1.02-1.231-2.512-1.207-3.867c0.035-3.755,0.068-7.51,0.103-11.265c-1.102,0.847-2.202,1.696-3.299,2.549
							c-1.773,3.737-3.478,7.509-5.197,11.271c-0.071,0.156-0.145,0.318-0.22,0.484c-0.627,1.403-1.287,2.8-2.153,4.076
							c-0.992,1.312-2.054,2.52-3.669,3.049c-5.466,1.771-10.883,3.673-16.258,5.704c-0.175,0.066-0.263,0.101-0.438,0.167
							c0.002-0.192,0.003-0.289,0.006-0.481c0.008-0.63,0.012-0.943,0.02-1.573c0.001-0.124,0.002-0.187,0.003-0.311
							c0.104-0.091,0.155-0.136,0.259-0.226c2.705-2.357,5.428-4.692,8.17-7.007c1.19-2.638,2.384-5.273,3.58-7.909
							c-1.914,0.613-3.669,0.922-5.25,0.922c-2.977,0-5.374-1.088-7.128-3.232l-0.536-0.655l0.847-0.013
							c0.059-0.001,5.106-0.093,8.567-1.374c-2.912-0.401-4.435-2.235-5.215-3.804c-0.939-1.886-1.013-3.747-1.015-3.825
							l-0.023-0.677l0.609,0.294c0.045,0.021,4.543,2.167,8.631,2.167h0c0.452-0.001,0.885-0.027,1.294-0.079
							c-2.005-1.087-2.902-3.554-3.048-5.613l-0.058-0.814l0.688,0.441c2.029,1.304,4.699,1.947,8.16,1.966
							c3.124-6.812,6.266-13.613,9.429-20.407c-1.656-0.375-3.314-0.741-4.975-1.098c-0.101-0.021-0.151-0.032-0.252-0.054
							c0.001-0.122,0.002-0.183,0.003-0.305c0.007-0.629,0.01-0.943,0.016-1.572c0.002-0.192,0.003-0.288,0.005-0.481
							c0.176-0.053,0.265-0.079,0.441-0.133c7.2-2.151,14.46-4.065,21.785-5.739C52.839,117.751,52.928,117.731,53.107,117.691
							 M53.82,116.811l-0.867,0.194l-0.116,0.025l-0.334,0.076c-7.284,1.664-14.629,3.6-21.829,5.751l-0.406,0.122l-0.497,0.148
							l-0.04,0.529l-0.003,0.305l-0.001,0.177l-0.004,0.449l-0.012,1.122l-0.003,0.304l-0.007,0.577l0.564,0.12l0.126,0.026
							l0.126,0.027c1.372,0.295,2.744,0.596,4.115,0.903c-2.961,6.366-5.943,12.819-8.871,19.203
							c-3.104-0.068-5.505-0.675-7.331-1.848l-0.688-0.441l-1.182-0.759l0.099,1.4l0.058,0.814c0.114,1.604,0.675,3.527,1.874,4.924
							c-3.697-0.182-7.574-2.002-7.746-2.083l-0.606-0.293l-1.049-0.506l0.041,1.164l0.023,0.677c0,0.014,0.062,2.056,1.088,4.114
							c0.594,1.193,1.621,2.6,3.356,3.465c-2.945,0.635-6.051,0.695-6.09,0.695l-0.846,0.013l-1.456,0.022l0.921,1.127l0.536,0.655
							c1.895,2.316,4.476,3.491,7.673,3.491c1.229,0,2.563-0.179,3.982-0.532c-0.964,2.126-1.927,4.253-2.887,6.381
							c-2.695,2.275-5.405,4.601-8.057,6.911l-0.207,0.18l-0.053,0.046l-0.237,0.207l-0.003,0.315l-0.001,0.089l-0.002,0.224
							l-0.02,1.57l-0.002,0.135l-0.004,0.349l-0.011,1.031l0.964-0.366l0.219-0.084l0.218-0.083
							c5.349-2.021,10.808-3.938,16.225-5.692c1.868-0.613,3.051-2.021,4.014-3.294c0.95-1.399,1.65-2.907,2.234-4.214l0.044-0.098
							l0.173-0.382l0.975-2.136c1.345-2.949,2.735-5.996,4.146-8.974c0.672-0.521,1.344-1.042,2.018-1.562l-0.039,4.186
							l-0.051,5.632c-0.034,1.842,0.449,3.351,1.398,4.356c0.724,0.744,1.622,1.102,2.752,1.102c0.497,0,0.986-0.064,1.398-0.129
							l0.033-0.005l0.033-0.009c4.329-1.1,8.725-2.129,13.066-3.057l0.139-0.029l0.306-0.064l0.557-0.115l0.004-0.569l0.002-0.237
							l0.001-0.244l0.014-1.963l0.001-0.137l0.001-0.136l0.004-0.471l-0.434-0.184l-0.111-0.048l-0.106-0.045
							c-1.211-0.517-2.426-1.028-3.644-1.535c0.107-13.862,0.212-27.727,0.317-41.59l0-0.058l0.001-0.135l0.003-0.344L53.82,116.811
							L53.82,116.811z"/>
					</g>
				</g>
			</g>
			<path fill="#E03616" d="M73.502,159.75c-3.437,0.546-6.864,1.14-10.284,1.785c0.006-0.942,0.009-1.413,0.015-2.354
				c0.085-13.082,0.17-26.164,0.254-39.245c-1.192-0.554-2.386-1.104-3.582-1.648c4.595-0.921,9.204-1.749,13.832-2.482
				c-0.004,0.896-0.007,1.343-0.011,2.238c-0.071,13.117-0.142,26.235-0.211,39.354C73.51,158.338,73.507,158.809,73.502,159.75z"/>
			<path fill="#E03616" d="M50.793,161.805c0.108-13.871,0.216-27.742,0.326-41.612c-0.582,0.134-0.872,0.203-1.453,0.341
				c-2.909,0.692-5.81,1.421-8.701,2.186c-2.389,0.641-4.77,1.303-7.146,1.988c1.492,0.333,2.981,0.674,4.469,1.026
				c-7.106,15.205-14.116,30.456-21.032,45.748c-1.863,1.438-3.719,2.887-5.566,4.346c3.795-1.395,7.627-2.739,11.459-3.973
				c1.788-0.575,3.278-1.689,4.07-3.426c1.729-3.789,3.504-7.591,5.262-11.382c0.598-1.29,1.192-2.583,1.792-3.873
				c3.292-2.63,6.609-5.228,9.953-7.791c-2.412,0.618-4.816,1.259-7.214,1.923c1.264-2.7,2.536-5.396,3.805-8.095
				c-0.017,1.828-0.033,3.655-0.049,5.483c3.323-0.878,6.656-1.709,10.002-2.491c-3.376,2.62-6.727,5.275-10.051,7.963
				c-0.038,4.279-0.01,8.629-0.115,12.838c-0.049,1.984,1.335,3.345,3.323,2.82c3.45-0.909,6.987-1.719,10.502-2.488
				C53.219,162.82,52.007,162.311,50.793,161.805z"/>
			<path fill="#E03616" d="M164.92,114.867c1.229,0.954,2.455,1.912,3.676,2.874c0.07,13.863,0.141,27.727,0.21,41.59
				c9.858,1.477,19.632,3.393,29.318,5.741c-0.022-2.616-0.044-5.233-0.065-7.852c-0.026-3.192-0.052-6.387-0.078-9.579
				c-3.404,1.305-6.792,2.651-10.164,4.036c0.008,1.073,0.015,2.146,0.023,3.219c-2.923-0.609-5.853-1.183-8.79-1.721
				c-0.02-3.401-0.042-6.802-0.062-10.203c4.34-1.795,8.706-3.521,13.1-5.179c-4.366-0.973-8.748-1.863-13.148-2.67
				c-0.021-3.4-0.042-6.802-0.063-10.203c2.928,0.536,5.848,1.108,8.762,1.716c0.007,0.942,0.01,1.413,0.017,2.355
				c3.365-1.362,6.743-2.685,10.139-3.965c-0.002-0.313-0.004-0.471-0.007-0.785c-0.009-1.047-0.017-2.094-0.026-3.141
				C186.921,118.474,175.971,116.391,164.92,114.867z"/>
			<path fill="#E03616" d="M147.381,145.609c0.003,1.15,0.006,2.301,0.009,3.452c-2.953-0.229-5.908-0.421-8.866-0.576
				c-0.021-12.028-0.043-24.057-0.063-36.084c-4.663-0.228-9.326-0.361-13.994-0.399c1.231,0.795,2.459,1.594,3.685,2.398
				c0.007,13.857,0.018,27.716,0.026,41.574c9.885,0.196,19.745,0.836,29.573,1.92c-0.022-5.858-0.045-11.717-0.068-17.575
				C154.229,142.044,150.796,143.809,147.381,145.609z"/>
			<path fill="#E03616" d="M103.798,136.087c0.591-0.036,0.886-0.052,1.476-0.085c-0.008,4.185-0.016,8.367-0.024,12.552
				c-2.957,0.168-5.911,0.372-8.864,0.611c0.026-9.414,0.054-18.828,0.08-28.242c2.944-0.239,5.889-0.442,8.837-0.609
				c-0.001,0.941-0.002,1.412-0.005,2.353c3.419-2.259,6.861-4.483,10.327-6.672c0-1.308,0.001-2.614,0.002-3.922
				c-11.071,0.265-22.108,1.094-33.096,2.479c1.222,0.632,2.442,1.267,3.66,1.905c-0.042,11.246-0.086,22.493-0.135,33.738
				c-0.023,5.459,5.962,7.108,10.306,6.815c2.669-0.181,5.42-0.415,8.133-0.571l0,0c-0.004,2.093-0.009,4.184-0.013,6.276
				c3.679-2.281,7.381-4.521,11.111-6.716c0.007-9.151,0.014-18.303,0.021-27.454C111.646,131.012,107.708,133.525,103.798,136.087z
				"/>
			<path fill="#E03616" d="M219.428,127.202c-3.998-1.214-10.796-1.282-10.732,4.61c0.036,3.398,0.062,6.807,0.097,10.21
				c6.137,5.176,12.179,10.462,18.126,15.854c0.029,2.619,0.06,5.239,0.089,7.859c-2.63-0.902-5.27-1.774-7.919-2.618
				c-0.014-1.31-0.027-2.251-0.041-3.561c-3.364-2.953-6.755-5.874-10.177-8.761c0.048,5.053,0.096,9.737,0.143,14.791
				c0.009,0.942,0.014,1.413,0.022,2.355c6.073,1.711,12.137,3.68,18.062,5.652c4.037,1.344,10.739,2.217,10.651-3.95
				c-0.049-3.401-0.084-6.814-0.129-10.223c-5.912-5.607-11.92-11.109-18.026-16.505c-0.027-2.619-0.056-5.238-0.083-7.857
				c2.64,0.848,5.27,1.725,7.891,2.63c0.011,0.942,0.017,1.414,0.028,2.357c3.293-0.923,6.598-1.804,9.915-2.64
				c-0.008-0.63-0.013-0.943-0.02-1.573c-0.013-0.943-0.018-1.415-0.03-2.358C231.399,131.218,225.382,129.011,219.428,127.202z"/>
			<path fill="#B13212" d="M51.119,120.192c-0.977,1.013-1.952,2.027-2.925,3.043c-0.046,5.758-0.094,11.517-0.141,17.273
				c-2.44,1.376-4.869,2.771-7.286,4.186c3.323-0.878,6.656-1.709,10.002-2.491c-0.926,1.805-1.852,3.61-2.775,5.417
				c-0.041,4.958-0.081,9.916-0.121,14.874c-1.225,1.083-2.446,2.169-3.664,3.258c3.419-0.86,6.849-1.672,10.292-2.432
				c-1.235-0.511-2.471-1.016-3.708-1.516C50.902,147.934,51.01,134.062,51.119,120.192z"/>
			<path fill="#B13212" d="M37.012,147.306c-1.102,0.306-2.201,0.618-3.299,0.936c2.372-5.126,4.755-10.246,7.147-15.362
				c-0.014,2.111-0.029,4.222-0.043,6.332C39.546,141.908,38.277,144.606,37.012,147.306z"/>
			<path fill="#B13212" d="M44.231,145.376c-4.247,2.358-8.455,4.779-12.627,7.267c-2.234,4.874-4.458,9.814-6.649,14.648
				c-1.211,2.671-4.813,4.349-7.28,5.664c-1.952,1.04-5.985,2.872-5.985,2.872c0,0.001,7.539-2.667,11.308-3.923
				c3.495-1.165,3.999-2.931,5.212-5.579c2.008-4.38,4.039-8.775,6.069-13.158C37.571,150.537,40.888,147.94,44.231,145.376z"/>
			<path fill="#B13212" d="M73.737,115.805c-0.981,0.94-1.962,1.883-2.94,2.827c-0.074,13.08-0.149,26.159-0.222,39.239
				c-1.471,0.244-2.94,0.499-4.407,0.765c-0.985,0.964-1.968,1.931-2.949,2.899c3.42-0.646,6.847-1.239,10.284-1.785
				C73.581,145.102,73.659,130.453,73.737,115.805z"/>
			<path fill="#B13212" d="M115.628,112.072c-0.985,0.808-1.968,1.618-2.949,2.432c0,0.628-0.001,0.941-0.001,1.569
				c-2.472,2.184-4.931,4.382-7.379,6.593c3.419-2.259,6.861-4.483,10.327-6.672C115.626,114.687,115.627,113.38,115.628,112.072z"
				/>
			<path fill="#B13212" d="M105.304,120.313c0.982-0.836,1.965-1.67,2.951-2.502c-4.916,0.232-9.823,0.572-14.724,1.017
				c-0.036,10.983-0.07,21.967-0.105,32.951c0.985-0.874,1.972-1.745,2.96-2.614c0.026-9.414,0.054-18.828,0.08-28.242
				C99.41,120.684,102.355,120.48,105.304,120.313z"/>
			<path fill="#B13212" d="M115.616,128.546c-0.987,1.332-1.972,2.665-2.956,4c-0.007,6.799-0.015,13.598-0.022,20.396
				c0,0.628-0.001,0.941-0.001,1.568c-2.733,2.721-5.45,5.455-8.153,8.206c3.679-2.281,7.381-4.521,11.111-6.716
				C115.602,146.849,115.608,137.697,115.616,128.546z"/>
			<path fill="#B13212" d="M138.462,112.401c-0.982,0.735-1.963,1.475-2.942,2.217c0.018,12.028,0.036,24.057,0.051,36.084
				c0.983-0.741,1.967-1.48,2.954-2.217C138.504,136.457,138.482,124.429,138.462,112.401z"/>
			<path fill="#B13212" d="M157.683,140.319c-0.978,1.464-1.954,2.927-2.929,4.391c0.012,3.505,0.024,7.01,0.036,10.514
				c-7.866-0.792-15.75-1.305-23.653-1.535c-0.988,0.759-1.974,1.521-2.958,2.286c9.885,0.196,19.745,0.836,29.573,1.92
				C157.729,152.036,157.707,146.178,157.683,140.319z"/>
			<path fill="#B13212" d="M197.761,121.102c-0.962,0.55-1.924,1.104-2.884,1.659c0.004,0.628,0.007,0.942,0.012,1.57
				c-2.421,1.538-4.832,3.092-7.234,4.661c3.365-1.362,6.743-2.685,10.139-3.965C197.783,123.719,197.772,122.41,197.761,121.102z"
				/>
			<path fill="#B13212" d="M187.638,126.637c0.964-0.579,1.93-1.155,2.898-1.728c-4.847-1.058-9.712-2.01-14.6-2.859
				c0.028,4.971,0.059,9.941,0.086,14.912c0.97-0.616,1.942-1.229,2.916-1.838c-0.021-3.4-0.042-6.802-0.063-10.203
				C181.804,125.457,184.724,126.029,187.638,126.637z"/>
			<path fill="#B13212" d="M178.987,142.973c4.34-1.795,8.706-3.521,13.1-5.179c-5.371,0.909-10.716,1.94-16.041,3.092
				c0.027,4.708,0.055,9.418,0.083,14.126c0.972-0.614,1.946-1.227,2.921-1.836C179.03,149.774,179.008,146.374,178.987,142.973z"/>
			<path fill="#B13212" d="M197.981,147.642c-0.96,1.362-1.917,2.727-2.875,4.092c0.026,3.428,0.054,6.856,0.082,10.285
				c-7.764-1.807-15.58-3.339-23.451-4.593c-0.979,0.632-1.956,1.267-2.931,1.905c9.858,1.477,19.632,3.393,29.318,5.741
				C198.076,159.263,198.028,153.452,197.981,147.642z"/>
			<path fill="#B13212" d="M237.295,133.476c-0.94,0.425-1.879,0.853-2.817,1.282c0.007,0.629,0.012,0.943,0.019,1.572
				c-2.365,1.222-4.72,2.461-7.067,3.717c3.293-0.923,6.598-1.804,9.915-2.64C237.327,136.097,237.311,134.786,237.295,133.476z"/>
			<path fill="#B13212" d="M219.594,142.917c-0.027-2.619-0.056-5.238-0.083-7.857c2.64,0.848,5.27,1.725,7.891,2.63
				c0.943-0.452,1.887-0.903,2.833-1.351c-4.513-1.604-9.054-3.117-13.627-4.54c0.03,2.881,0.06,5.762,0.089,8.642
				C217.666,141.263,218.631,142.089,219.594,142.917z"/>
			<path fill="#B13212" d="M237.621,159.422c0.048,3.67,0.106,7.352,0.138,11.009c0.048,5.269-6.724,4.482-9.941,3.412
				c-6.147-2.043-12.463-4.12-18.78-5.9c0.958-0.511,1.917-1.02,2.878-1.524c5.574,1.636,11.165,3.51,16.593,5.317
				c2.313,0.771,6.851,1.479,6.393-2.386c-0.039-3.145-0.078-6.289-0.115-9.434C235.73,159.747,236.675,159.582,237.621,159.422z"/>
			<path fill="#B13212" d="M219.049,159.557c-3.364-2.953-6.755-5.874-10.177-8.761c2.447,2.87,4.879,5.752,7.297,8.646
				c0.02,1.834,0.038,3.298,0.057,5.132c0.953-0.488,1.908-0.974,2.864-1.457C219.076,161.808,219.062,160.866,219.049,159.557z"/>
			<path fill="#B13212" d="M208.793,142.022c0.958-0.251,1.917-0.498,2.877-0.742c6.13,5.234,12.161,10.578,18.1,16.026
				c-0.951,0.186-1.901,0.375-2.851,0.569C220.972,152.484,214.93,147.198,208.793,142.022z"/>
			<path fill="#B13212" d="M107.458,153.932c-4.687,0.232-9.382,0.541-14.043,0.984c-3.323,0.316-6.489-1.38-7.358-4.721
				c-0.014,5.657,6.075,7.101,10.562,6.794c2.528-0.173,5.43-0.41,7.876-0.55C105.482,155.602,106.47,154.766,107.458,153.932z"/>
			<path fill="#E03616" d="M24.766,150.303c-2.648,0.302-4.902-1.123-6.327-3.2c0.276,1.741,2.205,4.234,4.088,4.234
				C24.109,151.337,24.766,150.303,24.766,150.303z"/>
			<path fill="#E03616" d="M22.791,154.66c-1.722,0.787-9.69,0.912-11.802-3.72c1.083,3.7,3.946,7.08,8.155,5.906
				C21.126,156.355,22.791,154.66,22.791,154.66z"/>
			<path fill="#E03616" d="M21.069,158.598c-1.505,0.972-7.941,2.871-12.327,1.411c2.024,1.964,5.295,2.255,7.939,1.709
				C19.271,161.183,21.069,158.598,21.069,158.598z"/>
		</g>
	</g>
	<g>
		<g>
			<g>
				<g>
					<path fill="#FFFFFF" d="M42.279,186.044c0.161,0.079,0.242,0.351,0.242,0.813c0,0.749-0.001,1.124-0.001,1.872
						c0,0.534,0,0.8-0.001,1.335c-0.663,0.187-0.995,0.283-1.657,0.473c-0.495,0.143-0.892,0.034-1.112-0.317
						c-0.099-0.157-0.186-0.276-0.271-0.323c-0.085-0.046-0.29-0.022-0.613,0.073c-0.148,0.044-0.223,0.065-0.371,0.11
						c-0.247,0.072-0.371,0.263-0.371,0.564c-0.022,4.32-0.045,8.64-0.068,12.959c0,0.179,0.038,0.29,0.114,0.338
						s0.163,0.1,0.257,0.138c0.128,0.053,0.267,0.149,0.399,0.297c0.132,0.148,0.199,0.383,0.199,0.703
						c-0.001,0.685-0.001,1.026-0.002,1.711c-1.941,0.581-3.878,1.175-5.812,1.778c0-0.686,0.001-1.027,0.001-1.712
						c0-0.304,0.071-0.574,0.213-0.815s0.302-0.431,0.442-0.567c0.094-0.093,0.171-0.206,0.228-0.312
						c0.057-0.105,0.085-0.231,0.085-0.374c0.003-4.341,0.007-8.682,0.011-13.023c0-0.124-0.057-0.198-0.17-0.226
						c-0.113-0.026-0.219-0.025-0.313,0.004c-0.113,0.036-0.17,0.054-0.284,0.089c-0.114,0.036-0.252,0.107-0.413,0.211
						c-0.161,0.104-0.297,0.298-0.413,0.561c-0.127,0.289-0.28,0.509-0.441,0.648c-0.162,0.142-0.451,0.277-0.868,0.411
						c-0.591,0.191-0.886,0.288-1.477,0.483c0-0.589,0-0.883,0.001-1.471c0-0.695,0.001-1.045,0.001-1.74
						c0-0.41,0.104-0.724,0.313-0.943s0.473-0.382,0.795-0.486c3.49-1.118,6.994-2.187,10.514-3.207
						C41.836,185.983,42.117,185.965,42.279,186.044z"/>
				</g>
				<g>
					<path fill="#FFFFFF" d="M57.297,199.174c0.128,0.061,0.277,0.164,0.431,0.316c0.153,0.151,0.23,0.389,0.23,0.708
						c0,0.685-0.001,1.026-0.001,1.711c-1.29,0.291-1.934,0.441-3.221,0.747c-0.249,0.059-0.479,0.047-0.689-0.036
						c-0.21-0.082-0.392-0.203-0.545-0.362c-0.153-0.159-0.273-0.343-0.358-0.554c-0.086-0.211-0.129-0.414-0.128-0.61
						c0.001-1.559,0.002-3.117,0.002-4.677c0-0.32-0.052-0.564-0.157-0.734c-0.104-0.171-0.23-0.291-0.373-0.363
						c-0.143-0.071-0.302-0.104-0.474-0.098c-0.172,0.006-0.325,0.026-0.458,0.06c-0.253,0.062-0.379,0.095-0.632,0.159
						c-0.326,0.1-0.531,0.188-0.617,0.263c-0.086,0.075-0.129,0.201-0.129,0.38c-0.001,1.417-0.002,2.834-0.003,4.251
						c0,0.159,0.082,0.281,0.244,0.364c0.162,0.083,0.291,0.158,0.387,0.224c0.152,0.103,0.249,0.23,0.287,0.38
						c0.038,0.151,0.057,0.389,0.057,0.709c0,0.609,0,0.914-0.001,1.523c-1.914,0.487-3.824,0.986-5.732,1.497
						c0-0.578,0-0.866,0.001-1.444c0-0.303,0.023-0.571,0.071-0.808c0.048-0.235,0.162-0.419,0.301-0.549
						c0.095-0.089,0.191-0.232,0.287-0.411c0.095-0.176,0.144-0.338,0.144-0.479c0.002-4.259,0.006-8.518,0.009-12.776
						c0-0.142-0.01-0.301-0.028-0.474c-0.019-0.172-0.071-0.264-0.143-0.282c-0.148-0.038-0.296-0.151-0.429-0.312
						c-0.133-0.159-0.2-0.418-0.2-0.774c0-0.673,0.001-1.011,0.001-1.685c2.364-0.632,4.732-1.245,7.108-1.833
						c1.435-0.352,2.523-0.194,3.26,0.461c0.737,0.656,1.105,1.645,1.104,2.963c0,0.962,0,1.442-0.001,2.404
						c0,0.57-0.078,1.109-0.231,1.616c-0.154,0.508-0.43,1.03-0.806,1.351c-0.033,0.027-0.067,0.082-0.087,0.167
						c-0.019,0.084,0.029,0.139,0.115,0.174c0.406,0.165,0.699,0.465,0.833,0.781c0.134,0.315,0.2,0.804,0.2,1.463
						c-0.001,1.372-0.001,2.743-0.002,4.115c0,0.159,0.039,0.268,0.115,0.32C57.114,199.073,57.202,199.128,57.297,199.174z
						 M53.109,187.873c0-0.624-0.09-1.037-0.271-1.242s-0.579-0.233-1.191-0.081c-0.47,0.117-0.706,0.175-1.176,0.294
						c-0.191,0.049-0.287,0.216-0.287,0.5c-0.001,1.604-0.002,3.208-0.004,4.812c0,0.178,0.039,0.279,0.115,0.304
						c0.076,0.025,0.248,0.005,0.516-0.062c0.264-0.066,0.396-0.1,0.66-0.166c0.498-0.124,0.896-0.303,1.192-0.535
						c0.297-0.231,0.445-0.659,0.445-1.283C53.108,189.396,53.108,188.888,53.109,187.873z"/>
				</g>
				<g>
					<path fill="#FFFFFF" d="M66.953,200.126c-1.367,0.269-2.953,0.377-4.238-0.254c-1.031-0.506-1.555-1.464-1.555-2.836
						c0.003-3.954,0.005-7.907,0.008-11.861c-0.01-1.338,0.561-2.604,1.543-3.504c1.172-1.075,2.726-1.677,4.254-1.978
						c1.367-0.269,2.976-0.365,4.23,0.336c0.986,0.552,1.487,1.545,1.487,2.916c-0.001,3.953-0.004,7.906-0.006,11.858
						c0.015,1.31-0.529,2.556-1.505,3.43C70.002,199.28,68.456,199.831,66.953,200.126z M68.665,183.989
						c0-0.32-0.067-0.565-0.201-0.736c-0.134-0.17-0.294-0.291-0.476-0.364c-0.183-0.072-0.372-0.112-0.563-0.119
						c-0.192-0.008-0.346,0.001-0.461,0.023c-0.116,0.022-0.271,0.068-0.462,0.141c-0.192,0.074-0.385,0.18-0.577,0.314
						c-0.192,0.137-0.361,0.308-0.505,0.513c-0.145,0.207-0.217,0.462-0.217,0.764c-0.001,3.812-0.004,7.623-0.007,11.435
						c0,0.267,0.058,0.479,0.173,0.633c0.115,0.156,0.26,0.27,0.433,0.342s0.365,0.115,0.577,0.128c0.211,0.012,0.404,0,0.577-0.033
						c0.404-0.078,0.789-0.258,1.155-0.541c0.366-0.283,0.549-0.691,0.549-1.226C68.662,191.504,68.664,187.747,68.665,183.989z"/>
				</g>
				<g>
					<path fill="#FFFFFF" d="M80.791,194.527c0.058,0.063,0.125,0.116,0.203,0.158c0.154,0.083,0.309,0.214,0.464,0.389
						c0.154,0.174,0.231,0.412,0.231,0.715c0,0.673,0,1.008-0.001,1.681c-1.98,0.289-3.959,0.59-5.937,0.903
						c0-0.674,0.001-1.01,0.001-1.683c0-0.303,0.077-0.564,0.231-0.785c0.154-0.221,0.31-0.409,0.463-0.528
						c0.089-0.069,0.169-0.144,0.217-0.223c0.048-0.078,0.072-0.215,0.073-0.412c0.002-4.335,0.003-8.67,0.005-13.005
						c0-0.011,0-0.018,0-0.028c0-0.178-0.024-0.299-0.072-0.362c-0.047-0.062-0.122-0.125-0.217-0.178
						c-0.15-0.084-0.308-0.208-0.462-0.38c-0.154-0.171-0.232-0.407-0.232-0.71c0-0.673,0.001-1.011,0.001-1.684
						c1.977-0.312,3.956-0.611,5.936-0.9c0,0.673,0,1.01,0,1.684c0,0.303-0.079,0.562-0.233,0.78
						c-0.155,0.219-0.327,0.391-0.463,0.52c-0.077,0.073-0.145,0.163-0.203,0.242c-0.058,0.08-0.087,0.21-0.087,0.388
						c0,0.01,0,0.016,0,0.026c-0.001,4.335-0.003,8.67-0.005,13.005C80.704,194.337,80.733,194.465,80.791,194.527z"/>
				</g>
				<g>
					<path fill="#FFFFFF" d="M89.071,182.53c0,0.356,0.179,0.661,0.537,0.914c0.357,0.253,0.808,0.496,1.349,0.73
						c0.541,0.235,1.123,0.482,1.742,0.738s1.202,0.563,1.743,0.92c0.542,0.357,0.994,0.783,1.351,1.274
						c0.358,0.491,0.537,1.096,0.537,1.808c0,1.228,0,1.842,0,3.07c0,0.676-0.17,1.283-0.509,1.821s-0.781,0.997-1.323,1.379
						s-1.158,0.688-1.845,0.918c-0.688,0.231-1.389,0.386-2.105,0.465c-0.716,0.079-1.423,0.079-2.119,0.002
						c-0.697-0.078-1.316-0.248-1.857-0.511c-0.541-0.262-0.977-0.624-1.305-1.089c-0.328-0.465-0.492-1.034-0.492-1.71
						c0-0.908,0.001-1.363,0.001-2.271c0.951-0.124,1.427-0.184,2.378-0.3c0.522-0.063,0.914,0.036,1.175,0.3
						c0.261,0.262,0.392,0.599,0.392,1.007c0,0.214,0,0.321,0,0.535c0,0.284,0.178,0.513,0.537,0.686
						c0.357,0.172,0.789,0.23,1.292,0.175s0.925-0.23,1.264-0.525c0.337-0.292,0.508-0.562,0.508-0.812c0-0.833,0-1.249,0.001-2.082
						c0-0.589-0.179-1.055-0.537-1.399c-0.358-0.345-0.804-0.635-1.335-0.87c-0.532-0.235-1.114-0.449-1.742-0.643
						c-0.628-0.193-1.209-0.449-1.741-0.767c-0.532-0.317-0.976-0.725-1.333-1.222c-0.356-0.496-0.537-1.163-0.536-2.001
						c0-0.896,0-1.346,0.001-2.242c0-0.712,0.149-1.341,0.45-1.887c0.3-0.545,0.7-1.016,1.204-1.407
						c0.502-0.392,1.083-0.702,1.741-0.93c0.656-0.229,1.344-0.382,2.061-0.461c0.716-0.078,1.404-0.066,2.062,0.034
						c0.657,0.102,1.234,0.294,1.728,0.575c0.494,0.281,0.886,0.662,1.176,1.143c0.291,0.48,0.436,1.061,0.436,1.735
						c0,0.897,0,1.347-0.001,2.244c-0.872,0.079-1.308,0.119-2.179,0.206c-0.484,0.048-0.891-0.044-1.219-0.276
						c-0.329-0.233-0.494-0.564-0.494-0.992c0-0.224,0-0.337,0-0.561c0-0.374-0.16-0.646-0.479-0.816
						c-0.319-0.171-0.673-0.234-1.059-0.192c-0.406,0.045-0.75,0.19-1.03,0.436c-0.28,0.245-0.422,0.502-0.422,0.77
						C89.071,181.281,89.071,181.697,89.071,182.53z"/>
				</g>
				<g>
					<path fill="#FFFFFF" d="M119.671,191.823c0.13,0.09,0.281,0.225,0.436,0.411c0.154,0.186,0.233,0.438,0.233,0.758
						c0,0.684,0,1.025,0,1.709c-1.305,0.008-1.957,0.016-3.262,0.038c-0.252,0.004-0.485-0.059-0.698-0.188s-0.398-0.29-0.553-0.481
						c-0.156-0.193-0.276-0.402-0.364-0.632c-0.087-0.229-0.13-0.442-0.13-0.639c0-1.558,0.001-3.114,0-4.671
						c0-0.321-0.054-0.578-0.161-0.771c-0.106-0.194-0.232-0.341-0.378-0.444c-0.146-0.103-0.307-0.17-0.481-0.201
						c-0.174-0.03-0.33-0.044-0.465-0.04c-0.256,0.008-0.384,0.011-0.64,0.019c-0.33,0.029-0.539,0.072-0.626,0.128
						c-0.087,0.057-0.131,0.174-0.131,0.352c0,1.415,0,2.83,0,4.244c0,0.16,0.083,0.3,0.248,0.419
						c0.165,0.118,0.296,0.221,0.393,0.307c0.155,0.138,0.253,0.286,0.292,0.445s0.058,0.399,0.058,0.719
						c0,0.609-0.001,0.913-0.001,1.521c-1.941,0.067-3.881,0.145-5.821,0.236c0-0.577,0-0.866,0-1.442
						c0-0.303,0.025-0.564,0.074-0.79c0.048-0.225,0.165-0.385,0.306-0.483c0.095-0.066,0.193-0.19,0.291-0.347
						s0.146-0.305,0.146-0.447c0.001-4.254,0.002-8.508,0.002-12.763c0-0.142-0.009-0.299-0.029-0.476
						c-0.019-0.177-0.073-0.281-0.146-0.315c-0.152-0.071-0.301-0.218-0.436-0.406c-0.136-0.188-0.204-0.462-0.204-0.817
						c0-0.673,0-1.009,0-1.682c2.405-0.114,4.81-0.205,7.217-0.272c1.208-0.068,2.47,0.281,3.304,1.177
						c0.748,0.803,1.121,1.887,1.121,3.203c0,0.961,0,1.441,0,2.402c0,0.57-0.078,1.09-0.233,1.563
						c-0.156,0.474-0.443,0.938-0.815,1.17c-0.033,0.021-0.069,0.069-0.088,0.149s0.027,0.144,0.116,0.198
						c0.417,0.258,0.708,0.618,0.844,0.964s0.204,0.848,0.204,1.506c0,1.371,0,2.741,0,4.111c0,0.16,0.04,0.275,0.117,0.345
						C119.487,191.681,119.575,191.757,119.671,191.823z M115.421,179.611c0-0.623-0.092-1.057-0.275-1.301s-0.587-0.36-1.208-0.343
						c-0.477,0.014-0.716,0.021-1.193,0.036c-0.194,0.007-0.291,0.152-0.291,0.438c0,1.602,0,3.203,0,4.805
						c0,0.179,0.039,0.288,0.117,0.331c0.077,0.041,0.251,0.057,0.523,0.048c0.268-0.009,0.402-0.011,0.67-0.019
						c0.504-0.015,0.908-0.106,1.208-0.273s0.451-0.562,0.451-1.187C115.421,181.133,115.421,180.625,115.421,179.611z"/>
				</g>
				<g>
					<path fill="#FFFFFF" d="M128.606,191.619c0.058,0.072,0.126,0.135,0.204,0.19c0.155,0.108,0.311,0.267,0.465,0.466
						c0.155,0.199,0.233,0.45,0.233,0.753c0,0.673,0,1.009,0,1.681c-1.989-0.042-3.979-0.073-5.968-0.091c0-0.673,0-1.009,0-1.681
						c0-0.304,0.077-0.552,0.232-0.746c0.155-0.195,0.313-0.358,0.466-0.451c0.089-0.054,0.17-0.114,0.219-0.186
						c0.048-0.07,0.073-0.203,0.073-0.4c0-4.333,0.001-8.666,0-13c0-0.01,0-0.015,0-0.025c0-0.178-0.024-0.304-0.073-0.375
						c-0.048-0.07-0.122-0.146-0.219-0.215c-0.151-0.109-0.311-0.26-0.466-0.456c-0.155-0.197-0.232-0.447-0.232-0.75
						c0-0.673,0-1.01,0-1.683c1.989,0.02,3.978,0.049,5.967,0.092c0,0.673,0,1.01,0.001,1.683c0,0.303-0.078,0.55-0.233,0.741
						c-0.156,0.193-0.33,0.337-0.466,0.442c-0.077,0.06-0.146,0.14-0.204,0.21c-0.059,0.069-0.087,0.192-0.087,0.37
						c0,0.011,0,0.017,0,0.026c0.001,4.334,0.001,8.667,0,13.001C128.519,191.412,128.548,191.547,128.606,191.619z"/>
				</g>
				<g>
					<path fill="#FFFFFF" d="M146.706,175.699c0,0.683,0.001,1.025,0.001,1.708c0,0.304-0.073,0.545-0.218,0.729
						c-0.146,0.183-0.31,0.308-0.45,0.388c-0.095,0.054-0.179,0.137-0.247,0.22c-0.068,0.084-0.122,0.196-0.16,0.335
						c-0.484,2.507-0.968,5.014-1.452,7.521c-0.174,0.948-0.348,1.873-0.523,2.776c-0.174,0.904-0.329,1.711-0.465,2.422
						s-0.247,1.285-0.334,1.724c-0.087,0.438-0.129,0.669-0.131,0.685c-0.029,0.29-0.149,0.582-0.275,0.796
						c-0.126,0.213-0.315,0.311-0.568,0.293c-1.357-0.091-2.714-0.175-4.072-0.252c-0.505-0.027-0.826-0.337-0.96-0.931
						c-1.086-5.256-2.173-10.512-3.261-15.767c-0.04-0.179-0.083-0.305-0.131-0.377c-0.049-0.073-0.124-0.157-0.219-0.223
						c-0.141-0.098-0.301-0.244-0.437-0.444c-0.136-0.201-0.204-0.451-0.204-0.754c0-0.684,0-1.026,0-1.71
						c1.95,0.079,3.899,0.171,5.848,0.272c0,0.684,0.001,1.026,0.001,1.71c0,0.32-0.068,0.569-0.203,0.749
						c-0.136,0.179-0.273,0.313-0.408,0.392c-0.17,0.098-0.262,0.287-0.262,0.571c0.72,4.25,1.438,8.501,2.155,12.752
						c0.687-4.165,1.375-8.329,2.062-12.494c0-0.159-0.034-0.281-0.102-0.366c-0.067-0.084-0.152-0.176-0.248-0.243
						c-0.14-0.102-0.301-0.247-0.436-0.442c-0.136-0.195-0.203-0.455-0.203-0.775c0-0.683,0-1.025-0.001-1.709
						C142.773,175.39,144.74,175.538,146.706,175.699z"/>
				</g>
				<g>
					<path fill="#FFFFFF" d="M154.835,193.41c0.059,0.078,0.126,0.149,0.204,0.212c0.154,0.123,0.309,0.293,0.464,0.508
						c0.155,0.214,0.232,0.471,0.232,0.773c0,0.674,0,1.009,0,1.682c-1.983-0.224-3.967-0.437-5.953-0.637c0-0.673,0-1.008,0-1.681
						c0-0.303,0.077-0.544,0.232-0.725c0.155-0.181,0.312-0.33,0.464-0.409c0.09-0.046,0.17-0.099,0.218-0.165
						c0.048-0.065,0.072-0.197,0.072-0.395c0-4.334-0.002-8.668-0.003-13.002c0-0.012,0-0.016,0-0.027
						c0-0.177-0.025-0.306-0.073-0.381c-0.048-0.076-0.122-0.158-0.218-0.235c-0.151-0.122-0.31-0.287-0.465-0.499
						c-0.154-0.21-0.232-0.467-0.232-0.77c-0.001-0.673-0.001-1.009-0.001-1.682c1.985,0.198,3.969,0.41,5.952,0.634
						c0,0.673,0,1.01,0,1.683c0,0.303-0.078,0.544-0.232,0.722s-0.329,0.307-0.464,0.399c-0.076,0.052-0.146,0.126-0.204,0.189
						c-0.058,0.064-0.087,0.187-0.087,0.364c0,0.011,0,0.017,0,0.027c0.001,4.334,0.002,8.668,0.004,13.002
						C154.748,193.195,154.777,193.332,154.835,193.41z"/>
				</g>
				<g>
					<path fill="#FFFFFF" d="M163.805,180.893c-0.087,0.067-0.13,0.145-0.13,0.232c0.001,1.479,0.001,2.956,0.002,4.435
						c0,0.125,0.043,0.226,0.13,0.3c0.087,0.075,0.188,0.121,0.304,0.139c1.217,0.178,2.434,0.362,3.648,0.559
						c0.096,0.016,0.199,0.062,0.304,0.141c0.105,0.078,0.159,0.193,0.159,0.335c0.001,0.854,0.001,1.28,0.001,2.136
						c0,0.248-0.145,0.35-0.434,0.303c-1.224-0.196-2.45-0.384-3.677-0.563c-0.29-0.043-0.435,0.054-0.435,0.285
						c0,1.664,0.001,3.328,0.002,4.993c0,0.106,0.049,0.201,0.145,0.287c0.096,0.085,0.202,0.137,0.318,0.154
						c0.927,0.137,1.391,0.205,2.317,0.351c0.173,0.026,0.32-0.046,0.405-0.205c0.041-0.077,0.087-0.183,0.145-0.298
						c0.058-0.114,0.14-0.218,0.246-0.307c0.106-0.09,0.237-0.165,0.391-0.22c0.153-0.056,0.338-0.066,0.55-0.032
						c0.718,0.116,1.076,0.175,1.793,0.296c0,1.245,0.001,2.491,0.001,3.737c0,0.196-0.106,0.34-0.318,0.429
						c-0.212,0.09-0.423,0.116-0.636,0.082c-0.753-0.124-1.128-0.186-1.881-0.305c-2.209-0.342-4.419-0.664-6.634-0.968
						c-0.696-0.094-1.044-0.139-1.741-0.228c0-0.642,0-0.961,0-1.603c0-0.391,0.058-0.683,0.173-0.872
						c0.116-0.188,0.28-0.312,0.464-0.38c0.229-0.084,0.348-0.267,0.348-0.516c0-4.326-0.002-8.651-0.004-12.979
						c0-0.284-0.128-0.512-0.377-0.663c-0.189-0.115-0.344-0.271-0.45-0.471c-0.106-0.201-0.159-0.48-0.159-0.836
						c0-0.673-0.001-1.009-0.001-1.682c3.465,0.452,6.919,0.958,10.369,1.515c0.232,0.038,0.43,0.152,0.594,0.34
						c0.164,0.188,0.246,0.352,0.246,0.494c0.001,1.41,0.001,2.116,0.001,3.526c-0.682-0.114-1.023-0.17-1.706-0.281
						c-0.386-0.062-0.695-0.201-0.926-0.415s-0.395-0.413-0.492-0.586c-0.132-0.233-0.338-0.373-0.608-0.415
						c-0.868-0.134-1.302-0.198-2.171-0.325C163.983,180.798,163.891,180.825,163.805,180.893z M166.883,176.105
						c-1.004-0.253-1.007-0.242-2.009-0.503c-2.209-0.575-4.026-3.111-4.635-4.321c2.116,0.26,5.656,1.581,6.294,3.36
						C166.65,174.967,166.883,176.105,166.883,176.105z"/>
				</g>
				<g>
					<path fill="#FFFFFF" d="M184.824,198.694c0.129,0.119,0.278,0.289,0.432,0.51s0.231,0.493,0.231,0.814
						c0.001,0.684,0.001,1.024,0.001,1.708c-1.29-0.288-1.935-0.428-3.226-0.701c-0.25-0.053-0.481-0.167-0.692-0.346
						c-0.211-0.177-0.394-0.381-0.548-0.608c-0.154-0.229-0.274-0.466-0.36-0.715c-0.087-0.249-0.13-0.474-0.13-0.67
						c-0.001-1.558-0.001-3.115-0.002-4.674c0-0.32-0.054-0.59-0.16-0.807c-0.106-0.218-0.23-0.394-0.375-0.53
						c-0.144-0.135-0.303-0.241-0.475-0.312c-0.173-0.071-0.328-0.119-0.462-0.146c-0.253-0.05-0.381-0.076-0.635-0.127
						c-0.327-0.047-0.535-0.052-0.62-0.015c-0.086,0.037-0.13,0.144-0.13,0.322c0,1.415,0.001,2.832,0.002,4.248
						c0,0.159,0.082,0.318,0.246,0.475c0.163,0.156,0.293,0.289,0.389,0.397c0.154,0.173,0.25,0.343,0.289,0.512
						s0.058,0.412,0.058,0.731c0,0.609,0.001,0.914,0.001,1.522c-1.923-0.374-3.848-0.737-5.775-1.087c0-0.577,0-0.865,0-1.442
						c0-0.302,0.024-0.561,0.072-0.774c0.048-0.214,0.163-0.349,0.302-0.414c0.093-0.044,0.193-0.147,0.29-0.281
						s0.145-0.271,0.145-0.414c-0.002-4.257-0.005-8.513-0.007-12.77c0-0.143-0.01-0.303-0.029-0.484
						c-0.019-0.182-0.073-0.296-0.145-0.346c-0.152-0.106-0.299-0.287-0.434-0.506c-0.135-0.22-0.202-0.508-0.202-0.864
						c0-0.673-0.001-1.009-0.001-1.682c2.391,0.429,4.776,0.883,7.158,1.362c1.28,0.235,2.484,0.883,3.271,1.925
						c0.747,0.988,1.121,2.219,1.11,3.459c0.001,0.962,0.002,1.444,0.002,2.406c0,0.57-0.076,1.073-0.229,1.512
						c-0.154,0.439-0.447,0.845-0.806,0.988c-0.032,0.013-0.067,0.053-0.086,0.129c-0.019,0.075,0.027,0.148,0.115,0.224
						c0.418,0.356,0.702,0.78,0.835,1.157c0.134,0.376,0.202,0.894,0.203,1.553c0.001,1.372,0.001,2.743,0.002,4.115
						c0,0.159,0.039,0.285,0.115,0.372C184.642,198.511,184.728,198.604,184.824,198.694z M180.611,185.51
						c0-0.623-0.092-1.079-0.274-1.366c-0.183-0.286-0.583-0.491-1.197-0.614c-0.473-0.095-0.708-0.143-1.182-0.235
						c-0.192-0.038-0.289,0.086-0.288,0.37c0.001,1.604,0.002,3.207,0.002,4.81c0,0.179,0.038,0.296,0.115,0.356
						c0.077,0.06,0.25,0.115,0.52,0.168c0.266,0.053,0.398,0.079,0.664,0.132c0.5,0.1,0.899,0.101,1.197,0.002
						c0.298-0.099,0.446-0.461,0.446-1.086C180.612,187.031,180.612,186.524,180.611,185.51z"/>
				</g>
				<g>
					<path fill="#FFFFFF" d="M193.634,186.817c-0.086,0.059-0.129,0.134-0.129,0.222c0.001,1.479,0.002,2.957,0.003,4.436
						c0,0.125,0.043,0.23,0.129,0.314s0.187,0.142,0.302,0.17c1.206,0.305,2.409,0.618,3.609,0.938
						c0.096,0.025,0.197,0.085,0.301,0.175c0.104,0.09,0.159,0.208,0.159,0.351c0,0.854,0,1.282,0.001,2.137
						c0,0.249-0.143,0.335-0.429,0.259c-1.21-0.323-2.423-0.64-3.639-0.947c-0.287-0.072-0.43,0.009-0.43,0.239
						c0,1.666,0.002,3.331,0.003,4.997c0.001,0.106,0.047,0.208,0.144,0.304c0.095,0.095,0.201,0.157,0.315,0.186
						c0.918,0.233,1.377,0.352,2.294,0.592c0.172,0.045,0.318-0.011,0.4-0.16c0.04-0.073,0.086-0.175,0.143-0.283
						c0.057-0.109,0.139-0.205,0.243-0.283c0.104-0.078,0.233-0.141,0.385-0.18c0.152-0.038,0.334-0.029,0.545,0.026
						c0.71,0.191,1.064,0.288,1.774,0.483c0.001,1.247,0.001,2.494,0.003,3.741c0,0.197-0.105,0.326-0.315,0.394
						c-0.21,0.067-0.419,0.072-0.629,0.016c-0.745-0.203-1.117-0.301-1.86-0.498c-2.186-0.573-4.375-1.127-6.569-1.662
						c-0.689-0.166-1.035-0.248-1.725-0.41c0-0.642,0-0.961-0.001-1.603c0-0.391,0.057-0.677,0.171-0.855
						c0.114-0.176,0.279-0.281,0.461-0.33c0.225-0.061,0.344-0.23,0.344-0.48c-0.003-4.329-0.006-8.657-0.009-12.986
						c0-0.284-0.126-0.524-0.374-0.703c-0.188-0.135-0.34-0.307-0.446-0.519c-0.106-0.211-0.158-0.495-0.159-0.852
						c0-0.674,0-1.011-0.001-1.684c3.436,0.813,6.857,1.68,10.267,2.595c0.229,0.062,0.424,0.195,0.586,0.4
						c0.162,0.205,0.244,0.379,0.244,0.521c0.001,1.412,0.001,2.116,0.002,3.528c-0.675-0.186-1.012-0.276-1.688-0.458
						c-0.383-0.103-0.688-0.273-0.917-0.512c-0.229-0.239-0.392-0.453-0.487-0.637c-0.13-0.247-0.334-0.408-0.602-0.478
						c-0.859-0.225-1.29-0.336-2.15-0.555C193.81,186.742,193.719,186.76,193.634,186.817z"/>
				</g>
				<g>
					<path fill="#FFFFFF" d="M207.284,193.369c0,0.356,0.176,0.733,0.528,1.134c0.352,0.4,0.794,0.832,1.326,1.29
						c0.532,0.458,1.102,0.944,1.709,1.456c0.606,0.513,1.177,1.059,1.708,1.639c0.531,0.581,0.973,1.195,1.323,1.835
						c0.351,0.641,0.526,1.317,0.527,2.03c0.001,1.23,0.002,1.845,0.003,3.075c0.001,0.678-0.166,1.216-0.496,1.616
						c-0.331,0.399-0.762,0.678-1.292,0.836c-0.531,0.159-1.133,0.212-1.806,0.159c-0.674-0.052-1.362-0.188-2.064-0.404
						c-0.703-0.217-1.395-0.508-2.08-0.874c-0.685-0.366-1.295-0.792-1.828-1.277s-0.961-1.028-1.285-1.63
						c-0.324-0.602-0.486-1.241-0.487-1.918c0-0.909-0.001-1.363-0.002-2.271c0.937,0.269,1.405,0.405,2.341,0.682
						c0.514,0.152,0.899,0.413,1.156,0.785c0.256,0.37,0.385,0.76,0.386,1.171c0,0.214,0.001,0.32,0.001,0.535
						c0,0.285,0.175,0.588,0.527,0.907c0.351,0.32,0.774,0.558,1.268,0.71c0.493,0.152,0.907,0.151,1.238-0.003
						c0.331-0.154,0.498-0.357,0.498-0.606c0-0.834,0-1.252,0-2.086c-0.001-0.589-0.177-1.129-0.529-1.622
						c-0.352-0.492-0.788-0.967-1.311-1.422c-0.523-0.455-1.092-0.909-1.71-1.363c-0.618-0.452-1.189-0.947-1.713-1.484
						c-0.523-0.538-0.961-1.13-1.314-1.775c-0.353-0.644-0.529-1.386-0.53-2.224c-0.001-0.898,0-1.348-0.002-2.246
						c0-0.712,0.146-1.28,0.441-1.704c0.294-0.422,0.689-0.728,1.184-0.912c0.493-0.184,1.065-0.254,1.71-0.212
						s1.321,0.172,2.023,0.388c0.702,0.216,1.376,0.511,2.021,0.883c0.644,0.371,1.209,0.803,1.693,1.288
						c0.483,0.484,0.867,1.027,1.151,1.628c0.285,0.602,0.427,1.241,0.428,1.918c0,0.898,0.001,1.347,0.002,2.246
						c-0.852-0.279-1.278-0.416-2.131-0.688c-0.474-0.151-0.874-0.412-1.195-0.78c-0.323-0.369-0.485-0.768-0.485-1.196
						c0-0.224,0-0.336,0-0.56c0-0.374-0.157-0.714-0.471-1.017c-0.313-0.302-0.659-0.513-1.04-0.63
						c-0.398-0.122-0.736-0.116-1.011,0.014c-0.275,0.13-0.413,0.329-0.413,0.597C207.283,192.118,207.283,192.535,207.284,193.369z
						"/>
				</g>
			</g>
		</g>
	</g>
	<g>
		<path fill="#E03616" d="M92.229,184.718c0,0,2.247-0.144,3.596-1.302c0,0-0.061,0.679-0.368,0.909
			c1.918,0.262,2.529-0.413,4.491-0.995c1.095-0.325,2.744-0.652,4.235-0.59c-0.102,0.141-0.245,0.569-0.175,0.699
			c0.213-0.281,0.749-0.415,0.953-0.396c0.884,0.081,1.647,0.181,2.305,0.406c-0.509,0.021-1.466,0.135-2.128,0.656
			c-0.001,0.01,4.958-1.252,6.737,1.74c-2.061-0.091-3.693,1.285-5.532,1.289c-1.839,0.002-2.906-0.412-2.951-0.448
			c-0.045-0.035,0.959,0.668,1.824,0.722c-1.22,0.48-8.156,0.362-9.605-1.239c0.012,0.001,0.149,0.531,0.7,0.778
			c-0.881,0.103-1.369-1.048-1.937-1.129c0.011,0.012,0.05,0.233-0.202,0.448C93.902,185.089,92.229,184.718,92.229,184.718z"/>
		<path fill="#FFFFFF" d="M103.807,182.732c0.127,0,0.252,0.003,0.377,0.008c-0.102,0.141-0.245,0.569-0.175,0.699
			c0.2-0.264,0.685-0.398,0.912-0.398c0.015,0,0.029,0.001,0.041,0.002c0.884,0.081,1.647,0.181,2.305,0.406
			c-0.509,0.021-1.466,0.135-2.128,0.656l0,0c0.017,0,1.043-0.256,2.324-0.256c1.539,0,3.446,0.369,4.413,1.996
			c-0.066-0.003-0.131-0.004-0.196-0.004c-1.969,0-3.556,1.289-5.335,1.293c-0.004,0-0.009,0-0.013,0
			c-1.753,0-2.802-0.378-2.926-0.441c-0.008-0.006-0.012-0.008-0.013-0.008c0,0,0,0,0.001,0.001
			c0.002,0.002,0.005,0.004,0.011,0.007c0.117,0.075,1.022,0.666,1.813,0.715c-0.395,0.155-1.39,0.248-2.603,0.248
			c-2.532,0-6.019-0.404-7.001-1.485c0-0.001-0.001-0.002-0.001-0.002c0,0.001,0.001,0.001,0.001,0.002
			c0.02,0.032,0.166,0.537,0.699,0.776c-0.038,0.004-0.074,0.007-0.11,0.007c-0.812,0-1.283-1.059-1.826-1.136
			c0.011,0.012,0.05,0.233-0.202,0.448c-0.271-1.178-1.944-1.549-1.944-1.549s2.247-0.144,3.596-1.302c0,0-0.061,0.679-0.368,0.909
			c0.292,0.04,0.555,0.058,0.796,0.058c1.34,0,2.032-0.56,3.695-1.053C100.953,183.032,102.421,182.732,103.807,182.732
			 M96.682,181.754l-1.314,1.128c-0.96,0.824-2.623,1.098-3.183,1.134l-4.946,0.315l4.839,1.074c0.32,0.073,1.272,0.42,1.41,1.02
			l0.261,1.131l0.853-0.729c0.367,0.357,0.867,0.83,1.601,0.83c0.062,0,0.126-0.003,0.192-0.011l0.367-0.043
			c2.091,0.71,5.108,0.757,5.854,0.757c0.787,0,2.204-0.039,2.861-0.298l0.578-0.227c0.091,0.002,0.184,0.003,0.278,0.003
			c1.007-0.003,1.912-0.34,2.787-0.667c0.863-0.322,1.678-0.627,2.562-0.627c0.055,0,0.11,0.001,0.166,0.004l1.302,0.058
			l-0.666-1.12c-0.364-0.611-0.858-1.107-1.473-1.483l0.036-0.001l-0.089-0.031c-0.595-0.354-1.3-0.596-2.104-0.722l-1.355-0.466
			c-0.637-0.218-1.339-0.328-2.176-0.413l0.215-0.298l-1.32-0.035c-0.134-0.006-0.27-0.009-0.407-0.009
			c-1.757,0-3.423,0.438-4.058,0.627c-0.619,0.184-1.104,0.374-1.532,0.542c-0.655,0.256-1.113,0.436-1.715,0.475
			c0.013-0.081,0.021-0.147,0.025-0.192L96.682,181.754L96.682,181.754z"/>
	</g>
	<path fill="#FFFFFF" d="M92.671,184.191c7.708,2.169,10.667-0.374,17.057,1.063c-6.907-0.8-8.557,2.257-17.74-0.426L92.671,184.191
		z"/>
	
		<path fill="#FFFFFF" stroke="#FFFFFF" stroke-width="0.3519" stroke-linecap="round" stroke-linejoin="round" stroke-miterlimit="10" d="
		M186.965,35.678c0,0,6.596-0.222,12.315,3.87c5.721,4.092,6.334,9.589,6.334,9.677C200.863,39.548,186.965,35.678,186.965,35.678z"
		/>
</g>
</svg>
