<?xml version="1.0" encoding="utf-8"?>
<!-- Generator: Adobe Illustrator 15.0.2, SVG Export Plug-In . SVG Version: 6.00 Build 0)  -->
<!DOCTYPE svg PUBLIC "-//W3C//DTD SVG 1.1//EN" "http://www.w3.org/Graphics/SVG/1.1/DTD/svg11.dtd">
<svg version="1.1" id="Layer_1" xmlns="http://www.w3.org/2000/svg" xmlns:xlink="http://www.w3.org/1999/xlink" x="0px" y="0px"
	 width="244px" height="213.333px" viewBox="0 0 244 213.333" enable-background="new 0 0 244 213.333" xml:space="preserve">
<g>
	<path fill="#FFFFFF" d="M82.167,57.034c14.514-11.068,34.035-15.32,51.809-11.075c8.742,1.999,17.07,5.859,24.163,11.361
		c-0.834,0.672-1.658,1.349-2.485,2.023c-0.857-1.64-1.504-3.382-2.366-5.016c-0.605-1.045-2.4-0.132-1.861,0.982
		c0.972,2.582,2.28,5.023,3.511,7.487c1.638-1.364,3.287-2.717,4.942-4.055c7.371,6.254,13.005,14.605,15.675,23.922
		c-2.709,2.688-5.391,5.401-8.107,8.09c-1.222,1.045-1.818,2.707-1.564,4.296c0.161,1.436,1.153,2.55,2.163,3.498
		c2.863,2.842,5.695,5.716,8.567,8.548c-1.926,10.2-7.24,19.684-14.838,26.743c-0.47-0.43-0.951-0.851-1.436-1.259
		c0.391-0.722,0.847-1.418,1.102-2.202c0.086-0.878-1.021-1.499-1.716-0.974c-0.49,0.467-0.76,1.116-1.109,1.688
		c-0.778-0.692-1.568-1.373-2.383-2.024c1.039-1.792,2.233-3.485,3.31-5.25c0.521-0.673-0.007-1.757-0.859-1.726
		c-0.605-0.055-0.95,0.514-1.249,0.938c-0.995,1.524-1.972,3.063-2.922,4.616c-0.577-0.47-1.174-0.916-1.708-1.428
		c-1.313-1.238-2.557-2.545-3.871-3.776c-0.438-0.509-1.113-0.229-1.663-0.159c-4.387-2.854-9.139-5.218-14.21-6.567
		c-6.458-1.794-13.292-1.759-19.875-0.741c-3.871,0.63-7.757,1.611-11.185,3.567c-2.131,1.231-4.043,3.202-4.469,5.705
		c-0.439,2.01,0.246,4.197,1.704,5.641c1.769,1.79,4.193,2.658,6.324,3.918c7.137,3.935,12.985,9.807,18.008,16.146
		c-12.874,0.724-25.921-2.653-36.872-9.449c0.897-0.771,1.867-1.452,2.688-2.308c0.58-0.538,0.209-1.659-0.582-1.733
		c-0.532-0.17-0.954,0.224-1.338,0.522c-0.9,0.742-1.776,1.512-2.689,2.241c-0.428-0.303-0.87-0.596-1.329-0.852
		c2.637-2.246,5.229-4.545,7.777-6.893c0.264-0.338,0.773-0.624,0.696-1.114c0.16-1.007-1.287-1.553-1.897-0.764
		c-1.985,1.76-3.911,3.592-5.942,5.304c-1.013-1.818-1.867-3.738-3.075-5.433c-0.856-0.824-2.281,0.381-1.632,1.367
		c1.34,2.41,2.618,4.855,3.92,7.289c-9.663-6.897-16.903-17.259-19.557-28.879c3.81-3.828,7.642-7.635,11.45-11.461
		c1.38-1.315,1.815-3.444,1.144-5.215c-0.382-1.024-1.237-1.746-1.987-2.498c-3.123-3.111-6.234-6.238-9.358-9.353
		c2.897-8.694,8.413-16.384,15.397-22.272c1.802,1.418,3.56,2.881,5.326,4.338c1.218-2.464,2.518-4.896,3.527-7.452
		c0.365-0.76-0.491-1.703-1.285-1.426c-0.596,0.081-0.752,0.74-0.996,1.183c-0.621,1.429-1.262,2.849-1.968,4.235
		C84.042,58.568,83.104,57.803,82.167,57.034 M114.237,61.883c-1.438,2.003-2.348,4.46-2.134,6.953
		c0.219,3.337,1.873,6.327,3.466,9.188c2.329,4.284,3.64,9.137,3.521,14.026c-0.205-0.004-0.621-0.015-0.825-0.017
		c-0.702-4.723-1.94-9.561-4.879-13.424c-1.801-2.368-4.537-4.312-7.611-4.296c-2.293-0.071-4.617,1.086-5.815,3.062
		c-1.221,1.894-1.233,4.354-0.484,6.426c0.941,2.631,2.896,4.745,4.998,6.518c0.119-2.358,1.589-4.588,3.751-5.556
		c1.507-0.734,3.522-0.606,4.688,0.692c1.644,1.742,1.912,4.295,1.961,6.583c-1.795,0.007-3.589-0.01-5.38,0.011
		c0.814,1.315,1.658,2.614,2.516,3.901c2.079-0.007,4.162-0.007,6.244-0.004c-0.164,1.718-0.634,3.644-2.166,4.652
		c-0.7,0.549-1.608,0.626-2.454,0.753c0.99,1.403,2.867,2.108,4.482,1.349c-0.105,2.086,0.538,4.402,2.55,5.392
		c0.67-0.51,1.38-1.027,1.797-1.78c0.61-1.103,0.619-2.397,0.673-3.62c1.634,0.779,3.506,0.053,4.536-1.339
		c-0.989-0.105-2.04-0.279-2.806-0.972c-1.281-1.092-1.711-2.824-1.864-4.43c2.092-0.01,4.187,0,6.278-0.007
		c0.827-1.3,1.678-2.589,2.496-3.895c-1.783-0.017-3.568-0.015-5.354,0c-0.004-2.266,0.293-4.755,1.854-6.521
		c0.923-1.069,2.436-1.433,3.786-1.105c2.641,0.647,4.655,3.195,4.706,5.916c2.208-1.879,4.273-4.122,5.151-6.94
		c0.729-2.284,0.438-5.012-1.219-6.827c-1.332-1.557-3.416-2.377-5.451-2.252c-3.01,0.093-5.665,2.005-7.416,4.347
		c-2.933,3.842-4.083,8.669-4.867,13.348c-0.205,0.016-0.611,0.045-0.813,0.061c-0.066-4.534,0.986-9.069,3.059-13.104
		c1.17-2.369,2.654-4.602,3.386-7.165c0.851-2.668,0.812-5.706-0.538-8.207c-1.754-3.349-4.675-5.841-7.397-8.376
		C118.326,57.246,116.041,59.37,114.237,61.883z M79.656,60.622c-0.635,0.189-0.577,0.955-0.624,1.478
		c2.787,2.445,5.615,4.844,8.327,7.375c1.383-2.23,2.672-4.518,3.935-6.817c0.282-0.491,0.535-1.128,0.211-1.657
		c-0.378-0.653-1.47-0.638-1.822,0.031c-0.951,1.65-1.822,3.349-2.813,4.979c-1.943-1.683-3.854-3.409-5.827-5.056
		C80.672,60.632,80.131,60.347,79.656,60.622z M149.053,62.033c1.281,2.544,2.756,4.987,4.218,7.432
		c2.659-2.46,5.431-4.802,8.143-7.202c0.799-0.936-0.622-2.339-1.539-1.508c-2.092,1.682-4.071,3.505-6.096,5.27
		c-1.021-1.652-1.867-3.412-2.883-5.064C150.228,59.908,148.454,60.915,149.053,62.033z M80.816,67.914
		c-0.382,0.817,0.488,1.381,0.983,1.874c2.301,2.06,4.459,4.271,6.712,6.382c1.519-2.218,2.985-4.473,4.414-6.747
		c0.25-0.462,0.688-0.975,0.407-1.525c-0.279-0.855-1.631-0.903-1.993-0.09c-1.054,1.653-2.092,3.316-3.181,4.943
		c-1.832-1.701-3.599-3.474-5.458-5.143C82.19,67.013,81.057,67.119,80.816,67.914z M147.314,68.673
		c1.465,2.604,3.203,5.049,4.855,7.534c2.398-2.447,4.909-4.779,7.406-7.129c0.873-0.775-0.134-2.315-1.22-1.771
		c-2.068,1.686-3.901,3.648-5.883,5.437c-1.165-1.701-2.182-3.508-3.373-5.187C148.412,66.655,146.794,67.637,147.314,68.673z
		 M81.956,75.571c2.492,2.367,4.81,4.915,7.222,7.366c1.778-2.39,3.523-4.81,5.199-7.273c0.503-0.724-0.102-1.905-1.034-1.69
		c-0.532-0.039-0.792,0.509-1.073,0.858c-1.069,1.576-2.185,3.124-3.294,4.675c-1.628-1.558-3.134-3.233-4.735-4.815
		c-0.399-0.375-0.839-0.899-1.458-0.711C81.999,74.074,81.852,74.924,81.956,75.571z M146.208,75.526
		c1.634,2.54,3.464,4.953,5.241,7.397c2.316-2.329,4.559-4.734,6.896-7.048c0.771-0.562,0.325-1.983-0.652-1.916
		c-0.688-0.061-1.108,0.566-1.553,0.978c-1.416,1.595-3.021,3.012-4.44,4.601c-1.314-1.769-2.515-3.616-3.849-5.363
		C146.996,73.443,145.596,74.541,146.208,75.526z M83.004,82.655c2.179,2.352,4.371,4.688,6.494,7.091
		c1.849-2.349,3.661-4.724,5.45-7.115c0.516-0.552,0.396-1.66-0.404-1.865c-0.58-0.251-1.14,0.192-1.448,0.65
		c-1.227,1.644-2.46,3.284-3.724,4.904c-1.518-1.699-3.078-3.369-4.635-5.032c-0.321-0.372-0.781-0.714-1.302-0.548
		C82.572,80.905,82.342,82.112,83.004,82.655z M145.637,82.514c1.76,2.456,3.649,4.817,5.479,7.22
		c2.233-2.441,4.482-4.876,6.718-7.314c0.756-0.915-0.611-2.268-1.527-1.521c-1.741,1.746-3.373,3.604-5.042,5.425
		c-1.193-1.541-2.37-3.099-3.526-4.665c-0.332-0.379-0.634-0.944-1.211-0.936C145.592,80.565,144.969,81.857,145.637,82.514z
		 M83.328,89.411c2.124,2.345,4.13,4.806,6.324,7.091c1.906-2.452,3.931-4.812,5.775-7.309c0.782-0.881-0.598-2.245-1.505-1.504
		c-1.551,1.738-2.905,3.651-4.396,5.443c-1.368-1.616-2.794-3.176-4.185-4.771c-0.399-0.448-0.895-1.061-1.578-0.819
		C82.927,87.698,82.703,88.873,83.328,89.411z M145.012,88.998c1.995,2.528,4.01,5.04,6.03,7.545
		c2.104-2.422,4.235-4.818,6.354-7.228c0.563-0.589,0.17-1.794-0.692-1.811c-0.5-0.083-0.892,0.26-1.185,0.612
		c-1.474,1.663-2.945,3.329-4.407,5.006c-1.449-1.777-2.821-3.62-4.31-5.358C145.961,86.99,144.759,87.985,145.012,88.998z
		 M93.847,94.648c-1.471,1.74-2.888,3.529-4.345,5.277c-1.499-1.727-2.944-3.498-4.473-5.192c-0.448-0.663-1.54-0.549-1.848,0.182
		c-0.34,0.554,0.083,1.15,0.447,1.561c1.98,2.274,3.936,4.564,5.866,6.875c1.903-2.229,3.742-4.514,5.615-6.771
		c0.311-0.422,0.782-0.874,0.606-1.454C95.566,94.303,94.369,93.989,93.847,94.648z M145.058,95.924
		c1.944,2.537,4.054,4.949,6.071,7.433c1.931-2.268,3.843-4.553,5.81-6.789c0.306-0.413,0.822-0.861,0.609-1.435
		c-0.113-0.853-1.344-1.128-1.868-0.487c-1.533,1.742-3.018,3.527-4.536,5.279c-1.498-1.771-2.906-3.632-4.454-5.362
		C145.858,93.705,144.404,94.944,145.058,95.924z M83.213,101.352c-0.177,0.516-0.395,1.129,0.061,1.579
		c1.96,2.412,3.97,4.79,5.894,7.231c2.058-2.31,4.054-4.669,6.053-7.023c0.253-0.349,0.631-0.812,0.383-1.258
		c-0.176-0.859-1.46-1.055-1.929-0.331c-1.483,1.724-2.925,3.486-4.45,5.174c-1.46-1.791-2.894-3.608-4.427-5.338
		C84.372,100.893,83.722,101.217,83.213,101.352z M145.195,102.826c2.021,2.497,4.148,4.912,6.271,7.331
		c1.97-2.459,3.998-4.88,5.982-7.328c0.771-0.933-0.607-2.319-1.528-1.502c-1.587,1.713-2.995,3.595-4.503,5.379
		c-1.657-1.727-3.069-3.675-4.723-5.395C145.789,100.519,144.404,101.931,145.195,102.826z M82.767,108.609
		c-0.339,0.522,0.119,1.044,0.418,1.454c1.816,2.269,3.578,4.582,5.321,6.906c2.118-2.19,4.124-4.481,6.157-6.745
		c0.291-0.385,0.77-0.76,0.68-1.302c0.014-0.953-1.381-1.358-1.926-0.598c-1.589,1.729-3.12,3.51-4.723,5.229
		c-1.354-1.756-2.682-3.534-4.097-5.242C84.142,107.689,82.966,107.836,82.767,108.609z M145.461,109.577
		c2.132,2.536,4.396,4.968,6.661,7.388c1.829-2.411,3.675-4.809,5.542-7.186c0.496-0.506,0.362-1.506-0.338-1.754
		c-0.46-0.229-1.078-0.061-1.362,0.369c-1.372,1.701-2.698,3.436-4.018,5.179c-1.588-1.778-3.192-3.549-4.779-5.329
		C146.329,107.307,144.731,108.54,145.461,109.577z M82.12,116.554c1.714,2.512,3.578,4.927,5.219,7.49
		c2.508-2.279,4.796-4.795,7.096-7.279c0.888-0.911-0.58-2.37-1.499-1.531c-1.782,1.766-3.441,3.653-5.241,5.401
		c-1.241-1.759-2.432-3.559-3.776-5.238C83.216,114.391,81.482,115.464,82.12,116.554z M146.092,115.542
		c-0.394,0.586,0.049,1.245,0.477,1.662c2.203,2.313,4.403,4.636,6.683,6.882c1.568-2.307,3.162-4.601,4.824-6.841
		c0.274-0.393,0.636-0.811,0.524-1.332c-0.027-0.962-1.481-1.241-1.961-0.445c-1.272,1.699-2.503,3.434-3.7,5.189
		c-1.739-1.756-3.401-3.585-5.131-5.347C147.332,114.816,146.403,114.927,146.092,115.542z M80.906,123.058
		c-0.07,0.482,0.269,0.876,0.497,1.269c1.516,2.259,2.932,4.584,4.332,6.919c2.482-2.394,5.036-4.716,7.442-7.183
		c0.624-0.486,0.513-1.657-0.285-1.893c-0.653-0.271-1.227,0.231-1.644,0.668c-1.642,1.683-3.332,3.313-5.049,4.915
		c-1.097-1.763-2.176-3.534-3.368-5.23C82.356,121.738,80.894,122.116,80.906,123.058z"/>
	<path fill="#FFFFFF" d="M234.053,179.638c-1.956-1.634-4.548-2.497-7.499-2.497l-0.396,0.006c-1.525,0.054-2.77,0.488-3.769,0.838
		c-0.433,0.151-0.841,0.294-1.121,0.347l-0.229,0.05c-5.805,1.433-12.61,0.195-18.104-3.27c-3.388-2.115-6.612-5.076-9.619-8.826
		c5.917-5.23,11.065-11.139,15.334-17.603c7.186-10.835,11.943-23.554,13.771-36.806c1.934-1.943,3.872-3.881,5.811-5.815
		c1.823-1.822,3.648-3.644,5.478-5.481c3.34-3.379,3.349-9.107-0.007-12.535c-4.164-4.18-8.336-8.354-12.519-12.519
		c-1.68-7.624-4.214-14.791-7.528-21.3c-5.561-11.086-13.795-21.239-23.817-29.362c-10.089-8.166-21.788-14.422-34.767-18.592
		c-11.45-3.706-23.304-5.584-35.23-5.584c-6.487,0-12.963,0.569-19.229,1.689c-15.157,2.646-29.703,8.295-42.063,16.334
		c-9.524,6.195-17.616,13.693-24.039,22.27c-8.312,10.994-13.954,23.994-16.366,37.675c-1.607,1.615-3.219,3.225-4.83,4.833
		c-1.479,1.477-2.957,2.952-4.368,4.37c-3.495,3.37-3.614,9.159-0.214,12.688c1.607,1.62,3.222,3.233,4.837,4.846
		c1.191,1.189,2.384,2.38,3.572,3.573c0.553,5.102,1.54,10.209,2.936,15.197c4.503,16.252,14.052,31.416,26.878,42.687
		c9.362,8.286,20.432,14.852,32.897,19.516c12.939,4.854,26.47,7.315,40.216,7.315c9.81,0,19.425-1.28,28.619-3.807
		c7.261,8.295,15.183,14.393,23.562,18.138c6.683,3.03,14.158,4.629,21.617,4.629h0.113c12.483-0.156,25.249-4.691,35.979-12.8
		c2.279-1.761,6.088-4.701,7.373-9.376C238.503,186.489,237.192,182.157,234.053,179.638z M193.864,208.325L193.864,208.325v0.002
		V208.325z"/>
	<path fill="#003876" d="M101.353,6.628c17.421-3.113,35.567-1.694,52.391,3.749c12.073,3.879,23.513,9.854,33.38,17.841
		c9.385,7.606,17.252,17.131,22.676,27.943c3.455,6.785,5.895,14.067,7.433,21.52c4.483,4.46,8.951,8.932,13.414,13.41
		c1.686,1.721,1.689,4.741-0.005,6.456c-4.004,4.021-8.028,8.015-12.027,12.04c-0.359,0.305-0.329,0.8-0.401,1.225
		c-1.668,12.608-6.12,24.876-13.158,35.487c-4.822,7.301-10.812,13.813-17.62,19.309c3.559,5.131,7.889,9.835,13.217,13.163
		c6.288,3.967,14.145,5.596,21.421,3.801c1.441-0.273,2.756-1.06,4.241-1.113c1.767-0.039,3.628,0.35,5.007,1.519
		c1.847,1.457,2.534,4.077,1.86,6.303c-0.836,3.108-3.416,5.259-5.86,7.146c-9.565,7.228-21.346,11.752-33.396,11.901
		c-6.833,0.009-13.668-1.421-19.896-4.244c-9.426-4.213-17.341-11.219-23.86-19.128c-22.392,6.822-46.944,5.571-68.801-2.628
		c-11.508-4.307-22.34-10.555-31.554-18.707c-12.188-10.71-21.244-24.96-25.579-40.608c-1.464-5.229-2.461-10.592-2.953-16.001
		c-3.152-3.175-6.334-6.323-9.487-9.502c-1.701-1.766-1.614-4.844,0.146-6.542c3.402-3.418,6.83-6.813,10.23-10.243
		c2.144-13.409,7.586-26.299,15.781-37.14c6.286-8.395,14.167-15.541,22.95-21.254C73.114,14.385,87.016,9.132,101.353,6.628
		 M79.076,20.59c-12.247,5.296-23.501,13.098-32.233,23.233c-9.411,10.801-15.556,24.331-17.799,38.462
		c-0.167,0.847-0.164,1.843-0.885,2.448c-3.201,3.19-6.388,6.395-9.593,9.58c2.983,2.985,5.976,5.961,8.951,8.954
		c0.578,0.525,0.632,1.342,0.687,2.068c1.045,12.714,4.972,25.247,11.826,36.037c6.58,10.446,15.749,19.152,26.196,25.678
		c12.363,7.716,26.461,12.543,40.89,14.441c14.042,1.862,28.495,0.651,42.004-3.606c1.049-0.289,2.081-0.872,3.195-0.717
		c0.714,0.076,1.22,0.641,1.641,1.177c5.113,6.591,11.139,12.618,18.354,16.898c6.126,3.662,13.17,5.845,20.325,5.998
		c6.62,0.176,13.218-1.338,19.274-3.965c4.767-2.095,9.298-4.778,13.227-8.204c-5.61,1.583-11.627,1.69-17.29,0.311
		c-5.523-1.315-10.662-4.026-15.087-7.554c-5.493-4.364-9.932-9.929-13.552-15.903c-0.743-1.018-0.564-2.589,0.497-3.313
		c7.162-5.248,13.535-11.62,18.588-18.934c7.307-10.499,11.72-22.904,13.161-35.588c0.098-0.727,0.163-1.541,0.739-2.071
		c3.896-3.903,7.795-7.809,11.707-11.702c-4.229-4.222-8.455-8.448-12.676-12.674c-0.543-0.48-0.666-1.214-0.797-1.88
		c-1.976-10.327-6.029-20.268-11.965-28.949c-6.589-9.704-15.436-17.777-25.419-23.894c-13.226-8.105-28.373-12.939-43.788-14.44
		C112.196,10.859,94.791,13.822,79.076,20.59z"/>
	<path fill="#003876" d="M73.011,55.567c16.091-15.144,39.833-21.455,61.372-16.753c14.459,3.066,28.154,10.666,37.569,22.173
		c5.374,6.533,9.239,14.318,11.115,22.571c0.258,0.888-0.186,1.808-0.83,2.409c-2.793,2.777-5.566,5.572-8.361,8.349
		c2.845,2.829,5.67,5.678,8.52,8.503c0.778,0.764,1.775,1.621,1.571,2.845c-1.841,14.206-9.594,27.423-20.766,36.322
		c-0.825,0.674-2.12,0.63-2.915-0.066c-5.576-4.821-11.001-9.884-17.207-13.901c-4.305-2.8-9.055-5.02-14.112-6.016
		c-5.152-1.062-10.482-0.809-15.635,0.108c-2.887,0.591-5.898,1.242-8.355,2.95c-0.021,0.08-0.063,0.24-0.087,0.319
		c2.403,1.391,4.925,2.577,7.237,4.125c8.771,5.69,15.702,13.76,21.564,22.323c0.981,1.117,0.718,3.133-0.717,3.737
		c-1.744,0.577-3.579,0.82-5.39,1.079c-19.821,2.272-40.646-4.445-55.076-18.309c-8.393-8.124-14.284-18.88-16.229-30.423
		c-0.15-0.923,0.429-1.728,1.048-2.342c3.759-3.745,7.503-7.506,11.261-11.252c-3.482-3.489-6.977-6.968-10.456-10.459
		c-0.673-0.65-1.013-1.641-0.689-2.548C60.095,71.496,65.646,62.548,73.011,55.567 M82.167,57.034
		c-0.611,0.455-1.203,0.934-1.787,1.419c-6.983,5.889-12.5,13.577-15.397,22.273c3.124,3.113,6.235,6.24,9.358,9.351
		c0.75,0.753,1.605,1.476,1.987,2.5c0.671,1.771,0.236,3.898-1.144,5.214c-3.809,3.826-7.642,7.633-11.45,11.461
		c2.653,11.62,9.893,21.981,19.557,28.878c0.037,0.062,0.114,0.184,0.153,0.243c0.459,0.257,0.9,0.55,1.329,0.854
		c0.622,0.452,1.266,0.872,1.923,1.276c10.951,6.798,23.998,10.174,36.871,9.449c-5.021-6.339-10.87-12.211-18.007-16.146
		c-2.131-1.258-4.556-2.128-6.325-3.917c-1.458-1.444-2.143-3.632-1.703-5.641c0.426-2.505,2.338-4.475,4.469-5.707
		c3.428-1.955,7.314-2.937,11.184-3.567c6.583-1.016,13.417-1.053,19.875,0.741c5.072,1.351,9.823,3.714,14.21,6.567
		c1.868,1.278,3.664,2.66,5.535,3.938c0.535,0.512,1.131,0.957,1.708,1.427c0.567,0.478,1.141,0.952,1.72,1.418
		c0.816,0.651,1.605,1.335,2.383,2.026c0.568,0.5,1.138,1.003,1.724,1.485c0.484,0.411,0.966,0.829,1.436,1.259
		c7.598-7.058,12.912-16.54,14.838-26.742c-2.872-2.832-5.704-5.706-8.567-8.548c-1.01-0.948-2.002-2.062-2.163-3.498
		c-0.254-1.589,0.343-3.252,1.564-4.295c2.717-2.688,5.398-5.402,8.107-8.091c-2.668-9.316-8.304-17.668-15.675-23.922
		c-0.569-0.494-1.149-0.969-1.74-1.422c-7.093-5.501-15.421-9.362-24.163-11.361C116.202,41.713,96.681,45.965,82.167,57.034z"/>
	<path fill="#003876" d="M114.237,61.883c1.804-2.514,4.089-4.639,6.424-6.657c2.724,2.536,5.645,5.027,7.397,8.376
		c1.349,2.501,1.388,5.538,0.538,8.207c-0.732,2.563-2.217,4.796-3.385,7.165c-2.072,4.034-3.127,8.569-3.06,13.104
		c0.202-0.017,0.608-0.046,0.813-0.061c0.784-4.679,1.936-9.506,4.867-13.348c1.75-2.342,4.406-4.255,7.415-4.347
		c2.035-0.125,4.119,0.695,5.454,2.252c1.655,1.816,1.944,4.543,1.216,6.827c-0.875,2.818-2.942,5.062-5.148,6.94
		c-0.054-2.721-2.067-5.269-4.708-5.916c-1.352-0.327-2.863,0.036-3.786,1.105c-1.561,1.766-1.857,4.255-1.853,6.521
		c1.784-0.015,3.57-0.017,5.353,0c-0.816,1.306-1.667,2.595-2.496,3.895c-2.092,0.007-4.186-0.003-6.278,0.007
		c0.154,1.605,0.586,3.338,1.864,4.431c0.766,0.691,1.816,0.864,2.806,0.971c-1.03,1.392-2.901,2.118-4.536,1.339
		c-0.054,1.223-0.062,2.518-0.671,3.62c-0.418,0.753-1.128,1.271-1.799,1.78c-2.012-0.989-2.655-3.306-2.549-5.392
		c-1.616,0.76-3.492,0.055-4.482-1.349c0.846-0.127,1.753-0.204,2.454-0.753c1.532-1.009,2.002-2.935,2.166-4.652
		c-2.082-0.003-4.165-0.003-6.244,0.004c-0.858-1.288-1.701-2.586-2.516-3.901c1.792-0.021,3.585-0.004,5.38-0.011
		c-0.049-2.288-0.317-4.841-1.961-6.583c-1.166-1.299-3.181-1.426-4.688-0.692c-2.162,0.968-3.632,3.197-3.751,5.556
		c-2.101-1.772-4.056-3.887-4.998-6.517c-0.749-2.073-0.737-4.534,0.484-6.427c1.198-1.978,3.523-3.135,5.815-3.062
		c3.074-0.017,5.812,1.929,7.61,4.296c2.938,3.863,4.177,8.701,4.88,13.424c0.204,0.002,0.62,0.013,0.825,0.017
		c0.119-4.89-1.191-9.742-3.521-14.026c-1.593-2.861-3.248-5.852-3.466-9.188C111.89,66.344,112.799,63.886,114.237,61.883"/>
	<path fill="#FDB826" d="M79.076,20.59c15.715-6.769,33.12-9.731,50.177-8.108c15.416,1.5,30.562,6.334,43.79,14.44
		c9.983,6.116,18.829,14.189,25.418,23.894c5.937,8.683,9.99,18.623,11.965,28.949c0.131,0.666,0.255,1.399,0.794,1.88
		c4.224,4.226,8.449,8.451,12.679,12.674c-3.912,3.894-7.811,7.799-11.706,11.702c-0.577,0.53-0.645,1.345-0.74,2.071
		c-1.442,12.685-5.853,25.089-13.161,35.588c-5.052,7.313-11.427,13.686-18.589,18.934c-1.06,0.725-1.24,2.296-0.496,3.313
		c3.617,5.973,8.056,11.539,13.551,15.903c4.426,3.527,9.563,6.238,15.086,7.554c5.665,1.38,11.684,1.272,17.291-0.311
		c-3.928,3.425-8.461,6.109-13.225,8.204c-6.058,2.625-12.656,4.14-19.275,3.965c-7.156-0.153-14.201-2.336-20.325-5.998
		c-7.216-4.28-13.241-10.308-18.354-16.898c-0.421-0.536-0.927-1.1-1.641-1.177c-1.115-0.155-2.146,0.428-3.195,0.717
		c-13.509,4.258-27.961,5.469-42.004,3.606c-14.43-1.898-28.525-6.726-40.89-14.441c-10.448-6.525-19.617-15.231-26.196-25.678
		c-6.854-10.79-10.781-23.323-11.825-36.037c-0.056-0.727-0.109-1.543-0.687-2.068c-2.977-2.993-5.969-5.969-8.952-8.954
		c3.204-3.186,6.392-6.39,9.592-9.58c0.722-0.605,0.719-1.602,0.886-2.448c2.245-14.131,8.39-27.661,17.801-38.462
		C55.575,33.688,66.829,25.886,79.076,20.59 M73.011,55.567c-7.364,6.981-12.917,15.929-15.569,25.746
		c-0.323,0.906,0.017,1.897,0.689,2.547c3.479,3.492,6.974,6.971,10.456,10.459c-3.758,3.746-7.502,7.507-11.261,11.252
		c-0.619,0.615-1.198,1.419-1.048,2.342c1.944,11.544,7.836,22.3,16.23,30.422c14.43,13.863,35.255,20.583,55.075,18.311
		c1.811-0.26,3.646-0.503,5.39-1.081c1.436-0.604,1.697-2.619,0.716-3.736c-5.862-8.565-12.795-16.634-21.562-22.324
		c-2.313-1.546-4.835-2.733-7.238-4.124c0.022-0.079,0.064-0.239,0.087-0.319c2.457-1.708,5.469-2.359,8.356-2.95
		c5.151-0.917,10.482-1.171,15.633-0.11c5.059,0.997,9.809,3.218,14.113,6.018c6.207,4.017,11.631,9.08,17.208,13.901
		c0.794,0.697,2.089,0.738,2.915,0.067c11.171-8.899,18.924-22.116,20.765-36.323c0.203-1.223-0.793-2.081-1.57-2.845
		c-2.85-2.825-5.675-5.674-8.521-8.503c2.795-2.776,5.57-5.571,8.361-8.349c0.646-0.602,1.087-1.521,0.832-2.409
		c-1.878-8.253-5.741-16.038-11.115-22.571c-9.415-11.508-23.111-19.105-37.57-22.173C112.844,34.112,89.102,40.423,73.011,55.567z"
		/>
	<path fill="#EC1F2F" d="M86.951,55.095c0.244-0.442,0.399-1.102,0.996-1.183c0.794-0.278,1.65,0.667,1.285,1.426
		c-1.01,2.557-2.31,4.988-3.528,7.453c-1.765-1.459-3.523-2.923-5.325-4.339c0.584-0.486,1.177-0.964,1.788-1.419
		c0.937,0.77,1.875,1.535,2.817,2.298C85.689,57.944,86.33,56.525,86.951,55.095"/>
	<path fill="#EC1F2F" d="M151.426,55.31c-0.539-1.114,1.256-2.027,1.861-0.982c0.862,1.634,1.509,3.376,2.366,5.016
		c0.825-0.675,1.651-1.352,2.485-2.023c0.591,0.454,1.172,0.929,1.74,1.422c-1.655,1.339-3.305,2.691-4.942,4.056
		C153.706,60.333,152.397,57.892,151.426,55.31"/>
	<path fill="#EC1F2F" d="M79.656,60.622c0.475-0.274,1.017,0.011,1.385,0.334c1.974,1.647,3.882,3.374,5.827,5.056
		c0.989-1.631,1.86-3.33,2.813-4.979c0.352-0.67,1.444-0.686,1.822-0.032c0.323,0.529,0.069,1.166-0.212,1.657
		c-1.262,2.3-2.551,4.587-3.935,6.817c-2.711-2.532-5.539-4.931-8.327-7.375C79.079,61.577,79.021,60.811,79.656,60.622"/>
	<path fill="#EC1F2F" d="M149.053,62.033c-0.599-1.118,1.177-2.125,1.843-1.073c1.016,1.653,1.861,3.413,2.883,5.064
		c2.024-1.765,4.006-3.588,6.096-5.27c0.917-0.831,2.338,0.573,1.539,1.508c-2.712,2.4-5.483,4.741-8.141,7.202
		C151.809,67.02,150.334,64.577,149.053,62.033"/>
	<path fill="#EC1F2F" d="M80.816,67.914c0.24-0.795,1.375-0.9,1.885-0.305c1.859,1.669,3.626,3.441,5.458,5.142
		c1.09-1.626,2.128-3.29,3.181-4.942c0.362-0.814,1.714-0.767,1.993,0.091c0.281,0.55-0.157,1.062-0.407,1.524
		c-1.429,2.274-2.896,4.53-4.414,6.747c-2.253-2.111-4.411-4.322-6.712-6.382C81.305,69.295,80.434,68.731,80.816,67.914"/>
	<path fill="#EC1F2F" d="M147.314,68.673c-0.521-1.036,1.098-2.019,1.786-1.115c1.191,1.679,2.208,3.485,3.373,5.187
		c1.981-1.787,3.814-3.751,5.883-5.437c1.086-0.544,2.093,0.996,1.22,1.771c-2.497,2.349-5.008,4.682-7.406,7.129
		C150.518,73.722,148.782,71.277,147.314,68.673"/>
	<path fill="#EC1F2F" d="M81.956,75.571c-0.104-0.646,0.043-1.497,0.826-1.592c0.619-0.188,1.059,0.337,1.458,0.711
		c1.603,1.582,3.107,3.258,4.735,4.815c1.108-1.551,2.224-3.099,3.294-4.675c0.281-0.349,0.541-0.897,1.073-0.859
		c0.933-0.216,1.538,0.968,1.034,1.691c-1.676,2.464-3.421,4.884-5.199,7.273C86.766,80.486,84.448,77.938,81.956,75.571"/>
	<path fill="#EC1F2F" d="M146.208,75.526c-0.612-0.985,0.788-2.083,1.643-1.352c1.334,1.746,2.536,3.595,3.849,5.363
		c1.42-1.589,3.025-3.006,4.44-4.601c0.445-0.411,0.865-1.038,1.555-0.978c0.977-0.067,1.421,1.354,0.65,1.916
		c-2.337,2.312-4.577,4.719-6.896,7.048C149.672,80.479,147.842,78.066,146.208,75.526"/>
	<path fill="#EC1F2F" d="M83.004,82.655c-0.662-0.542-0.432-1.749,0.432-1.915c0.521-0.168,0.98,0.176,1.302,0.547
		c1.557,1.662,3.117,3.333,4.635,5.032c1.263-1.62,2.497-3.261,3.724-4.903c0.308-0.459,0.867-0.901,1.448-0.651
		c0.801,0.205,0.92,1.313,0.404,1.865c-1.787,2.392-3.602,4.767-5.45,7.115C87.375,87.342,85.184,85.006,83.004,82.655"/>
	<path fill="#EC1F2F" d="M145.637,82.514c-0.668-0.658-0.047-1.949,0.892-1.792c0.578-0.009,0.878,0.558,1.211,0.937
		c1.157,1.566,2.333,3.123,3.527,4.665c1.667-1.82,3.299-3.679,5.04-5.425c0.916-0.746,2.285,0.605,1.528,1.521
		c-2.236,2.438-4.485,4.873-6.718,7.314C149.286,87.332,147.396,84.971,145.637,82.514"/>
	<path fill="#EC1F2F" d="M83.328,89.411c-0.625-0.539-0.401-1.713,0.436-1.871c0.685-0.24,1.179,0.373,1.579,0.82
		c1.39,1.594,2.816,3.155,4.184,4.771c1.49-1.79,2.846-3.703,4.396-5.442c0.907-0.74,2.288,0.623,1.506,1.504
		c-1.847,2.497-3.87,4.856-5.776,7.309C87.458,94.216,85.452,91.756,83.328,89.411"/>
	<path fill="#EC1F2F" d="M145.012,88.998c-0.253-1.013,0.949-2.008,1.79-1.233c1.488,1.738,2.86,3.581,4.31,5.358
		c1.462-1.677,2.934-3.342,4.407-5.006c0.295-0.353,0.685-0.695,1.185-0.612c0.862,0.017,1.256,1.221,0.692,1.811
		c-2.118,2.409-4.249,4.806-6.354,7.228C149.021,94.038,147.007,91.525,145.012,88.998"/>
	<path fill="#EC1F2F" d="M93.847,94.648c0.522-0.659,1.72-0.345,1.87,0.479c0.177,0.579-0.296,1.031-0.606,1.454
		c-1.873,2.257-3.712,4.54-5.615,6.771c-1.931-2.31-3.886-4.601-5.866-6.875c-0.364-0.41-0.787-1.007-0.447-1.561
		c0.307-0.731,1.399-0.846,1.848-0.182c1.528,1.694,2.974,3.465,4.473,5.192C90.959,98.177,92.376,96.389,93.847,94.648"/>
	<path fill="#EC1F2F" d="M145.058,95.924c-0.653-0.98,0.801-2.22,1.632-1.361c1.546,1.73,2.954,3.591,4.451,5.362
		c1.52-1.752,3.006-3.536,4.537-5.279c0.525-0.641,1.757-0.365,1.868,0.487c0.215,0.573-0.302,1.021-0.607,1.435
		c-1.969,2.236-3.881,4.521-5.811,6.789C149.109,100.874,147.002,98.461,145.058,95.924"/>
	<path fill="#EC1F2F" d="M83.213,101.352c0.509-0.135,1.159-0.459,1.586,0.034c1.534,1.73,2.967,3.547,4.427,5.338
		c1.525-1.688,2.967-3.451,4.45-5.174c0.468-0.724,1.752-0.528,1.93,0.331c0.246,0.448-0.132,0.909-0.385,1.258
		c-1.999,2.354-3.995,4.714-6.052,7.023c-1.925-2.441-3.934-4.819-5.895-7.231C82.818,102.479,83.036,101.868,83.213,101.352"/>
	<path fill="#EC1F2F" d="M145.195,102.826c-0.791-0.895,0.592-2.306,1.499-1.515c1.653,1.72,3.065,3.668,4.723,5.395
		c1.508-1.784,2.916-3.666,4.503-5.379c0.921-0.817,2.299,0.57,1.528,1.502c-1.984,2.448-4.013,4.868-5.982,7.328
		C149.347,107.738,147.217,105.322,145.195,102.826"/>
	<path fill="#EC1F2F" d="M82.767,108.609c0.199-0.772,1.375-0.92,1.83-0.298c1.416,1.705,2.742,3.484,4.097,5.242
		c1.603-1.719,3.134-3.499,4.723-5.229c0.544-0.761,1.938-0.356,1.926,0.598c0.09,0.543-0.389,0.917-0.68,1.301
		c-2.033,2.266-4.04,4.557-6.158,6.747c-1.741-2.327-3.504-4.638-5.32-6.908C82.886,109.653,82.428,109.131,82.767,108.609"/>
	<path fill="#EC1F2F" d="M145.461,109.577c-0.729-1.037,0.868-2.268,1.708-1.333c1.587,1.78,3.19,3.549,4.779,5.329
		c1.317-1.743,2.645-3.478,4.016-5.179c0.284-0.43,0.902-0.599,1.365-0.369c0.698,0.248,0.831,1.248,0.335,1.754
		c-1.865,2.377-3.711,4.774-5.542,7.186C149.856,114.544,147.591,112.113,145.461,109.577"/>
	<path fill="#EC1F2F" d="M82.12,116.554c-0.638-1.09,1.096-2.163,1.798-1.157c1.345,1.68,2.536,3.479,3.776,5.238
		c1.8-1.748,3.459-3.636,5.241-5.401c0.919-0.839,2.387,0.62,1.499,1.531c-2.3,2.484-4.588,5-7.096,7.279
		C85.699,121.481,83.834,119.066,82.12,116.554"/>
	<path fill="#EC1F2F" d="M146.092,115.542c0.312-0.614,1.24-0.726,1.716-0.23c1.729,1.763,3.392,3.592,5.131,5.346
		c1.197-1.754,2.428-3.488,3.7-5.189c0.479-0.794,1.934-0.517,1.961,0.447c0.111,0.521-0.25,0.938-0.524,1.332
		c-1.662,2.238-3.256,4.534-4.824,6.839c-2.279-2.244-4.479-4.568-6.683-6.882C146.141,116.787,145.698,116.129,146.092,115.542"/>
	<path fill="#EC1F2F" d="M80.906,123.058c-0.013-0.942,1.451-1.32,1.926-0.535c1.192,1.697,2.271,3.468,3.368,5.23
		c1.717-1.602,3.407-3.232,5.049-4.915c0.417-0.437,0.99-0.938,1.644-0.668c0.798,0.235,0.909,1.406,0.285,1.893
		c-2.406,2.467-4.96,4.789-7.442,7.183c-1.4-2.335-2.816-4.657-4.332-6.919C81.175,123.934,80.835,123.541,80.906,123.058"/>
	<path fill="#EC1F2F" d="M147.27,122.285c0.551-0.07,1.226-0.35,1.664,0.159c1.313,1.231,2.557,2.538,3.871,3.776
		C150.934,124.944,149.137,123.563,147.27,122.285"/>
	<path fill="#EC1F2F" d="M157.435,123.032c0.299-0.425,0.643-0.993,1.249-0.938c0.852-0.031,1.38,1.053,0.858,1.726
		c-1.076,1.765-2.27,3.458-3.31,5.25c-0.577-0.467-1.152-0.942-1.719-1.42C155.464,126.095,156.441,124.556,157.435,123.032"/>
	<path fill="#EC1F2F" d="M79.371,130.843c-0.65-0.986,0.775-2.192,1.631-1.369c1.208,1.695,2.062,3.616,3.075,5.435
		c2.031-1.712,3.957-3.545,5.942-5.304c0.61-0.79,2.058-0.243,1.897,0.764c0.076,0.489-0.432,0.774-0.696,1.114
		c-2.549,2.346-5.141,4.646-7.777,6.891c-0.039-0.06-0.115-0.181-0.154-0.244C81.989,135.699,80.711,133.252,79.371,130.843"/>
	<path fill="#EC1F2F" d="M159.725,129.403c0.696-0.525,1.802,0.098,1.717,0.975c-0.256,0.785-0.71,1.48-1.101,2.202
		c-0.587-0.483-1.157-0.986-1.726-1.486C158.965,130.518,159.234,129.872,159.725,129.403"/>
	<path fill="#EC1F2F" d="M87.462,136.986c0.384-0.299,0.807-0.693,1.338-0.522c0.791,0.072,1.163,1.194,0.582,1.731
		c-0.819,0.857-1.79,1.539-2.688,2.308c-0.657-0.404-1.3-0.823-1.923-1.275C85.686,138.497,86.562,137.728,87.462,136.986"/>
</g>
</svg>
